<svg width="569" height="802" viewBox="0 0 569 802" fill="none" xmlns="http://www.w3.org/2000/svg">
<path d="M49.8184 546.414L46.6113 529.227C46.533 528.808 46.3697 528.409 46.1316 528.056C45.8936 527.702 45.5857 527.401 45.2269 527.171C44.8682 526.941 44.4662 526.786 44.0456 526.717C43.625 526.648 43.1947 526.666 42.7812 526.77L42.7207 526.787L32.4629 529.813H23.5371L13.2793 526.797L13.2187 526.779C12.8053 526.676 12.375 526.658 11.9544 526.727C11.5338 526.796 11.1318 526.95 10.773 527.181C10.4143 527.411 10.1064 527.712 9.86834 528.065C9.63026 528.419 9.46703 528.817 9.38866 529.236L6.18163 546.414C6.04449 547.102 6.14629 547.816 6.47019 548.438C6.79409 549.061 7.32069 549.554 7.96288 549.836C8.37415 550.025 8.82098 550.123 9.27343 550.125C9.81497 550.125 10.3465 549.979 10.8125 549.703V557.938C10.8125 560.01 11.6356 561.997 13.1007 563.462C14.5658 564.927 16.553 565.75 18.625 565.75H37.375C39.447 565.75 41.4341 564.927 42.8993 563.462C44.3644 561.997 45.1875 560.01 45.1875 557.938V549.705C45.653 549.981 46.1837 550.126 46.7246 550.127C47.1775 550.126 47.625 550.028 48.0371 549.84C48.6801 549.557 49.2072 549.064 49.5312 548.441C49.8551 547.818 49.9565 547.103 49.8184 546.414ZM9.24999 547L12.459 529.813L20.6758 532.229L9.24999 547ZM37.375 562.625H29.5625V560.147L32.2305 557.481C32.5236 557.187 32.6884 556.79 32.6884 556.375C32.6884 555.96 32.5236 555.563 32.2305 555.27C31.9373 554.976 31.5396 554.812 31.125 554.812C30.7104 554.812 30.3127 554.976 30.0195 555.27L28 557.291L25.9805 555.27C25.6873 554.976 25.2896 554.812 24.875 554.812C24.4604 554.812 24.0627 554.976 23.7695 555.27C23.4763 555.563 23.3116 555.96 23.3116 556.375C23.3116 556.79 23.4763 557.187 23.7695 557.481L26.4375 560.147V562.625H18.625C17.3818 562.625 16.1895 562.131 15.3104 561.252C14.4314 560.373 13.9375 559.181 13.9375 557.938V546.045L24.0781 532.938H31.9199L42.0625 546.045V557.938C42.0625 559.181 41.5686 560.373 40.6896 561.252C39.8105 562.131 38.6182 562.625 37.375 562.625ZM46.75 547L35.3242 532.229L43.541 529.813L46.75 547ZM23.3125 549.344C23.3125 549.807 23.175 550.26 22.9175 550.646C22.66 551.031 22.2939 551.332 21.8657 551.509C21.4374 551.687 20.9661 551.733 20.5115 551.642C20.0569 551.552 19.6392 551.329 19.3115 551.001C18.9837 550.673 18.7605 550.256 18.67 549.801C18.5796 549.346 18.626 548.875 18.8034 548.447C18.9808 548.019 19.2812 547.653 19.6666 547.395C20.0521 547.137 20.5052 547 20.9687 547C21.5903 547 22.1865 547.247 22.626 547.686C23.0656 548.126 23.3125 548.722 23.3125 549.344ZM37.375 549.344C37.375 549.807 37.2375 550.26 36.98 550.646C36.7225 551.031 36.3564 551.332 35.9282 551.509C35.4999 551.687 35.0286 551.733 34.574 551.642C34.1194 551.552 33.7017 551.329 33.374 551.001C33.0462 550.673 32.823 550.256 32.7325 549.801C32.6421 549.346 32.6885 548.875 32.8659 548.447C33.0433 548.019 33.3437 547.653 33.7291 547.395C34.1146 547.137 34.5677 547 35.0312 547C35.6528 547 36.249 547.247 36.6885 547.686C37.1281 548.126 37.375 548.722 37.375 549.344Z" fill="#DA5D35"/>
<path d="M92 751.667L89.2292 751.854C87.4375 749.729 82.4167 744.375 77.4167 744.375C77.4167 744.375 73.3125 750.542 77.3333 758.771C76.1875 760.5 75.4792 761.396 75.3333 763.458L71.3125 764.063L71.75 766.104L75.4167 765.563L75.7083 767.042L72.4375 769L73.4167 770.854L76.4375 769C78.8333 774.083 84.8958 776.667 92 776.667C99.1042 776.667 105.167 774.083 107.563 769L110.583 770.854L111.563 769L108.292 767.042L108.583 765.563L112.25 766.104L112.688 764.063L108.667 763.458C108.521 761.396 107.813 760.5 106.667 758.771C110.688 750.542 106.583 744.375 106.583 744.375C101.583 744.375 96.5625 749.729 94.7708 751.854L92 751.667ZM85.75 757.917C86.3025 757.917 86.8324 758.136 87.2231 758.527C87.6138 758.918 87.8333 759.447 87.8333 760C87.8333 760.553 87.6138 761.082 87.2231 761.473C86.8324 761.864 86.3025 762.083 85.75 762.083C85.1975 762.083 84.6676 761.864 84.2769 761.473C83.8862 761.082 83.6667 760.553 83.6667 760C83.6667 759.447 83.8862 758.918 84.2769 758.527C84.6676 758.136 85.1975 757.917 85.75 757.917ZM98.25 757.917C98.8025 757.917 99.3324 758.136 99.7231 758.527C100.114 758.918 100.333 759.447 100.333 760C100.333 760.553 100.114 761.082 99.7231 761.473C99.3324 761.864 98.8025 762.083 98.25 762.083C97.6975 762.083 97.1676 761.864 96.7769 761.473C96.3862 761.082 96.1667 760.553 96.1667 760C96.1667 759.447 96.3862 758.918 96.7769 758.527C97.1676 758.136 97.6975 757.917 98.25 757.917ZM89.9167 764.167H94.0833L92.625 767.063C93.0417 768.396 94.2083 769.375 95.6458 769.375C96.4746 769.375 97.2695 769.046 97.8555 768.46C98.4416 767.874 98.7708 767.079 98.7708 766.25H99.8125C99.8125 767.355 99.3735 768.415 98.5921 769.196C97.8107 769.978 96.7509 770.417 95.6458 770.417C94.0833 770.417 92.7292 769.563 92 768.333C91.2708 769.563 89.9167 770.417 88.3542 770.417C87.2491 770.417 86.1893 769.978 85.4079 769.196C84.6265 768.415 84.1875 767.355 84.1875 766.25H85.2292C85.2292 767.079 85.5584 767.874 86.1445 768.46C86.7305 769.046 87.5254 769.375 88.3542 769.375C89.7917 769.375 90.9583 768.396 91.375 767.063L89.9167 764.167Z" fill="black"/>
<path fill-rule="evenodd" clip-rule="evenodd" d="M189.042 161.119C188.433 161.119 187.813 161.213 187.288 161.417C186.975 161.533 186.687 161.706 186.438 161.927C186.239 162.104 186.079 162.32 185.969 162.563C185.859 162.805 185.801 163.067 185.798 163.333C185.798 164.01 186.158 164.483 186.438 164.738C186.715 164.994 187.031 165.15 187.288 165.25C187.815 165.454 188.433 165.546 189.042 165.546C189.646 165.546 190.267 165.454 190.792 165.25C191.052 165.15 191.367 164.994 191.646 164.738C191.844 164.561 192.003 164.345 192.113 164.103C192.223 163.861 192.281 163.599 192.283 163.333C192.281 163.067 192.223 162.805 192.112 162.563C192.002 162.32 191.843 162.104 191.644 161.927C191.394 161.706 191.106 161.533 190.794 161.417C190.233 161.212 189.639 161.112 189.042 161.119Z" fill="#4C45E9"/>
<path d="M193.244 156.346C193.585 155.792 194.265 155.129 195.285 155.129C196.302 155.129 196.981 155.792 197.325 156.346C197.683 156.925 197.854 157.627 197.854 158.321C197.854 159.012 197.683 159.717 197.325 160.294C196.981 160.848 196.304 161.51 195.283 161.51C194.265 161.51 193.585 160.848 193.242 160.294C192.887 159.697 192.704 159.015 192.712 158.321C192.712 157.627 192.883 156.925 193.244 156.346ZM182.783 155.131C181.767 155.131 181.087 155.792 180.742 156.346C180.387 156.943 180.204 157.626 180.212 158.321C180.212 159.012 180.383 159.717 180.744 160.294C181.087 160.848 181.765 161.51 182.785 161.51C183.802 161.51 184.481 160.848 184.827 160.294C185.183 159.715 185.354 159.012 185.354 158.321C185.354 157.627 185.183 156.925 184.825 156.346C184.481 155.792 183.804 155.131 182.783 155.131Z" fill="#4C45E9"/>
<path fill-rule="evenodd" clip-rule="evenodd" d="M176.698 138.854C175.419 138.854 173.948 139.227 172.769 140.242C171.546 141.294 170.812 142.892 170.812 144.973V148.885C170.815 149.498 170.919 150.725 171.269 151.748C171.383 152.083 171.565 152.527 171.871 152.929C171.326 154.042 170.987 155.245 170.871 156.479C170.765 157.452 170.762 158.475 170.779 159.419C169.404 159.898 167.977 160.49 167.321 160.915C166.984 161.144 166.75 161.496 166.669 161.896C166.589 162.295 166.667 162.71 166.888 163.053C167.109 163.395 167.455 163.638 167.852 163.729C168.25 163.82 168.667 163.752 169.015 163.54C169.256 163.383 169.973 163.054 170.915 162.696C171.058 163.694 171.348 164.602 171.754 165.429C171.393 165.655 171.034 165.886 170.679 166.123C170.507 166.234 170.358 166.378 170.241 166.547C170.125 166.716 170.043 166.906 169.999 167.107C169.956 167.307 169.953 167.515 169.99 167.716C170.027 167.918 170.103 168.111 170.215 168.283C170.326 168.456 170.47 168.604 170.639 168.721C170.808 168.838 170.998 168.92 171.199 168.963C171.399 169.006 171.606 169.009 171.808 168.972C172.01 168.936 172.203 168.859 172.375 168.748L172.648 168.569C172.921 168.392 173.235 168.185 173.577 167.977C174.806 169.231 176.331 170.2 177.915 170.929C181.625 172.637 186.019 173.229 189 173.229C191.981 173.229 196.375 172.635 200.085 170.929C201.669 170.2 203.196 169.231 204.423 167.977C204.765 168.185 205.079 168.392 205.352 168.569L205.625 168.748C205.973 168.973 206.396 169.05 206.801 168.963C207.207 168.876 207.561 168.631 207.785 168.283C208.01 167.935 208.088 167.512 208.001 167.107C207.913 166.702 207.669 166.348 207.321 166.123L207.085 165.969C206.856 165.819 206.571 165.631 206.246 165.429C206.652 164.604 206.944 163.694 207.087 162.696C208.029 163.054 208.744 163.383 208.987 163.54C209.335 163.752 209.753 163.82 210.15 163.729C210.547 163.638 210.893 163.395 211.114 163.053C211.335 162.71 211.414 162.295 211.333 161.896C211.252 161.496 211.018 161.144 210.681 160.915C210.025 160.49 208.598 159.898 207.221 159.419C207.252 158.437 207.221 157.455 207.129 156.477C207.013 155.244 206.674 154.042 206.129 152.929C206.435 152.527 206.617 152.083 206.733 151.748C207.023 150.821 207.176 149.857 207.187 148.885V144.975C207.187 142.892 206.454 141.296 205.231 140.242C204.054 139.227 202.581 138.854 201.302 138.854C200.452 138.854 199.573 139.181 198.862 139.5C198.095 139.861 197.346 140.258 196.617 140.69L196.173 140.946L196.169 140.948C195.619 141.267 195.131 141.552 194.696 141.775C194.489 141.884 194.276 141.981 194.058 142.067C194.016 142.083 193.973 142.096 193.929 142.108C193.477 142.103 193.026 142.067 192.579 142L192.242 141.958C191.166 141.829 190.083 141.771 189 141.783C187.392 141.783 186.479 141.869 185.758 141.958L185.421 142C184.974 142.067 184.523 142.103 184.071 142.108C184.027 142.096 183.984 142.083 183.942 142.067C183.724 141.982 183.511 141.884 183.304 141.775C182.807 141.511 182.316 141.235 181.831 140.948L181.383 140.69C180.655 140.258 179.906 139.862 179.14 139.502C178.429 139.181 177.548 138.854 176.698 138.854ZM176.837 166.696C177.533 167.221 178.335 167.683 179.221 168.092C182.408 169.558 186.329 170.104 189 170.104C191.671 170.104 195.59 169.558 198.779 168.092C199.665 167.683 200.467 167.221 201.162 166.696C200.777 166.629 200.43 166.42 200.191 166.109C199.952 165.799 199.838 165.41 199.873 165.02C199.907 164.63 200.086 164.267 200.375 164.003C200.664 163.739 201.042 163.593 201.433 163.594C202.115 163.594 202.812 163.765 203.458 164C203.799 163.286 203.999 162.513 204.048 161.723C203.633 161.608 203.207 161.537 202.777 161.51C202.363 161.51 201.965 161.346 201.672 161.053C201.379 160.76 201.215 160.362 201.215 159.948C201.215 159.533 201.379 159.136 201.672 158.843C201.965 158.55 202.363 158.385 202.777 158.385C203.183 158.385 203.642 158.448 204.104 158.535C204.104 157.96 204.085 157.396 204.023 156.817C203.877 155.473 203.496 154.279 202.598 153.219C202.236 152.797 201.825 152.419 201.375 152.094C201.041 151.848 200.818 151.48 200.755 151.07C200.692 150.661 200.794 150.243 201.04 149.908C201.285 149.574 201.653 149.351 202.063 149.288C202.473 149.225 202.891 149.328 203.225 149.573C203.475 149.756 203.708 149.944 203.929 150.135C204.021 149.66 204.062 149.162 204.062 148.877V144.975C204.062 143.671 203.633 142.99 203.192 142.61C202.708 142.194 202.021 141.979 201.302 141.979C201.156 141.979 200.79 142.06 200.148 142.35C199.55 142.621 198.881 142.992 198.175 143.398C198.041 143.475 197.907 143.553 197.773 143.631C197.215 143.954 196.637 144.29 196.127 144.552C195.804 144.719 195.469 144.877 195.146 144.998C194.777 145.144 194.385 145.225 193.987 145.235C193.372 145.233 192.757 145.186 192.148 145.096L191.862 145.06C190.913 144.947 189.956 144.896 189 144.908C187.525 144.908 186.74 144.985 186.14 145.06L185.852 145.096C185.331 145.165 184.787 145.233 184.012 145.233C183.569 145.233 183.154 145.108 182.856 144.998C182.52 144.869 182.192 144.72 181.873 144.552C181.362 144.29 180.785 143.954 180.227 143.631L179.825 143.398C179.119 142.992 178.45 142.619 177.852 142.35C177.21 142.058 176.844 141.979 176.698 141.979C175.981 141.979 175.292 142.194 174.808 142.61C174.367 142.99 173.937 143.673 173.937 144.975V148.875C173.937 149.16 173.979 149.658 174.071 150.133C174.294 149.942 174.529 149.754 174.775 149.571C174.941 149.449 175.128 149.362 175.328 149.313C175.527 149.264 175.734 149.255 175.937 149.286C176.14 149.317 176.335 149.388 176.51 149.494C176.686 149.601 176.839 149.741 176.96 149.906C177.082 150.072 177.17 150.26 177.218 150.459C177.267 150.658 177.276 150.865 177.245 151.068C177.214 151.271 177.143 151.466 177.037 151.642C176.93 151.817 176.791 151.97 176.625 152.092C176.125 152.458 175.723 152.835 175.402 153.217C174.506 154.279 174.123 155.471 173.977 156.815C173.915 157.394 173.894 157.96 173.894 158.533C174.358 158.444 174.817 158.383 175.223 158.383C175.637 158.383 176.035 158.548 176.328 158.841C176.621 159.134 176.785 159.531 176.785 159.946C176.785 160.36 176.621 160.758 176.328 161.051C176.035 161.344 175.637 161.508 175.223 161.508C175.002 161.508 174.573 161.571 173.952 161.721C174.008 162.55 174.212 163.306 174.542 163.998C175.188 163.746 175.873 163.609 176.567 163.592C176.958 163.591 177.336 163.737 177.625 164.001C177.914 164.265 178.093 164.628 178.127 165.018C178.162 165.408 178.048 165.797 177.809 166.107C177.57 166.418 177.223 166.629 176.837 166.696Z" fill="#4C45E9"/>
<path d="M298.417 315.167C300.422 315.159 302.382 314.573 304.062 313.479L304.667 313.083C305.002 312.856 305.316 312.598 305.604 312.312L306.042 311.896C306.408 311.522 306.743 311.118 307.042 310.687L307.167 310.521C307.504 310.023 307.79 309.493 308.021 308.937C308.096 308.783 308.159 308.623 308.208 308.458C308.381 308.032 308.521 307.594 308.625 307.146L308.75 306.625C308.829 306.003 308.857 305.376 308.833 304.75V290.167L302.583 296.417H294.25L288 290.167V304.75C288 307.513 289.097 310.162 291.051 312.116C293.004 314.069 295.654 315.167 298.417 315.167ZM302.583 300.583C302.995 300.583 303.398 300.705 303.741 300.934C304.083 301.163 304.35 301.489 304.508 301.869C304.666 302.25 304.707 302.669 304.627 303.073C304.546 303.477 304.348 303.848 304.056 304.14C303.765 304.431 303.394 304.63 302.99 304.71C302.586 304.79 302.167 304.749 301.786 304.591C301.405 304.434 301.08 304.167 300.851 303.824C300.622 303.481 300.5 303.079 300.5 302.667C300.5 302.114 300.719 301.584 301.11 301.193C301.501 300.803 302.031 300.583 302.583 300.583ZM294.25 300.583C294.662 300.583 295.065 300.705 295.407 300.934C295.75 301.163 296.017 301.489 296.175 301.869C296.332 302.25 296.374 302.669 296.293 303.073C296.213 303.477 296.014 303.848 295.723 304.14C295.432 304.431 295.061 304.63 294.656 304.71C294.252 304.79 293.833 304.749 293.453 304.591C293.072 304.434 292.747 304.167 292.518 303.824C292.289 303.481 292.167 303.079 292.167 302.667C292.167 302.114 292.386 301.584 292.777 301.193C293.168 300.803 293.697 300.583 294.25 300.583Z" fill="black"/>
<path d="M285.917 331.833V321.417H279.667V331.833H273.417V310.792C272.357 310.638 271.344 310.252 270.451 309.661C269.558 309.07 268.806 308.29 268.25 307.375C267.577 306.267 267.204 305.004 267.167 303.708C267.204 302.672 267.454 301.654 267.9 300.717C268.345 299.781 268.978 298.946 269.758 298.263C270.539 297.58 271.451 297.063 272.438 296.746C273.426 296.429 274.468 296.316 275.5 296.417C276.056 296.45 276.613 296.365 277.133 296.168C277.654 295.97 278.127 295.664 278.52 295.27C278.914 294.877 279.22 294.404 279.418 293.883C279.615 293.363 279.7 292.806 279.667 292.25C279.667 291.697 279.886 291.168 280.277 290.777C280.668 290.386 281.197 290.167 281.75 290.167C282.302 290.167 282.832 290.386 283.223 290.777C283.614 291.168 283.833 291.697 283.833 292.25C283.865 293.353 283.671 294.451 283.263 295.476C282.856 296.501 282.243 297.433 281.463 298.213C280.683 298.993 279.751 299.606 278.726 300.013C277.701 300.421 276.603 300.615 275.5 300.583C271.729 300.583 271.333 303 271.333 303.729C271.333 304.458 271.708 306.833 275.5 306.833H286.104C286.41 308.628 287.105 310.334 288.139 311.833C289.173 313.331 290.522 314.586 292.092 315.508C293.661 316.431 295.413 317 297.225 317.174C299.038 317.349 300.866 317.126 302.583 316.521V331.833H296.333V321.417H292.167V331.833H285.917Z" fill="black"/>
<path d="M521.598 41.2487C521.243 40.2022 520.568 39.2936 519.669 38.6506C518.77 38.0075 517.693 37.6625 516.588 37.6641H512.344V25.1047L510.56 25.3595C506.514 25.9375 503.363 27.9876 501.194 31.4533C499.631 33.9514 498.904 36.7072 498.567 38.7683C496.238 40.5601 494.212 43.0272 492.538 46.1121C491.126 48.7115 489.958 51.7582 489.066 55.1676C487.557 60.9284 487.353 65.7068 487.345 65.9074L487.344 71.4375H490.469V66.0043C490.508 65.2005 491.492 47.6108 500.921 40.9129L501.474 40.5203L501.565 39.8483C502.035 36.3692 503.66 30.6229 509.219 28.8566V40.7891H516.588C517.039 40.7878 517.48 40.9281 517.848 41.1904C518.216 41.4528 518.492 41.8238 518.638 42.2514C519.884 45.9288 522.025 50.5304 525.361 52.6929L524.358 56.4554C524.008 57.7972 523.214 58.9807 522.104 59.8122C520.995 60.6437 519.636 61.074 518.25 61.0326C515.451 60.9486 512.537 61.3138 509.589 62.1176L508.438 62.4316V71.4375H511.563V64.8426C513.722 64.3324 515.938 64.1017 518.156 64.1561C520.245 64.2137 522.293 63.564 523.966 62.3124C525.64 61.0608 526.842 59.2807 527.377 57.2606L529.046 51.0027L527.803 50.4701C525.479 49.474 523.275 46.1991 521.598 41.2487Z" fill="#00D1FF"/>
<path d="M37.5 79.3333C33.9375 79.3333 31.7709 80.0208 30.5209 80.6041C28.9167 79.8124 27.0834 79.3333 25 79.3333C22.9167 79.3333 21.0834 79.8124 19.4792 80.6041C18.2292 80.0208 16.0625 79.3333 12.5 79.3333C6.25004 79.3333 2.08337 95.9999 2.08337 100.167C2.08337 101.896 4.83337 103.479 8.62504 104.125C9.95837 108.792 16.25 112.354 23.9584 112.667V103.75C22.7292 102.979 20.8334 101.583 20.8334 100.167C20.8334 98.0833 25 98.0833 25 98.0833C25 98.0833 29.1667 98.0833 29.1667 100.167C29.1667 101.583 27.2709 102.979 26.0417 103.75V112.667C33.75 112.354 40.0417 108.792 41.375 104.125C45.1667 103.479 47.9167 101.896 47.9167 100.167C47.9167 95.9999 43.75 79.3333 37.5 79.3333ZM8.64587 99.8958C7.60421 99.6458 6.79171 99.3541 6.25004 99.1249C6.77087 93.3541 10.8334 84.3333 12.6042 83.4999C13.7292 83.4999 14.5834 83.6249 15.3542 83.7291C10.9792 88.5416 9.25004 96.0833 8.64587 99.8958ZM18.75 95.9999C18.1975 95.9999 17.6676 95.7804 17.2769 95.3897C16.8862 94.999 16.6667 94.4691 16.6667 93.9166C16.6667 92.7916 17.6042 91.8333 18.75 91.8333C19.3026 91.8333 19.8325 92.0527 20.2232 92.4434C20.6139 92.8341 20.8334 93.3641 20.8334 93.9166C20.8334 95.0833 19.8959 95.9999 18.75 95.9999ZM31.25 95.9999C30.6975 95.9999 30.1676 95.7804 29.7769 95.3897C29.3862 94.999 29.1667 94.4691 29.1667 93.9166C29.1667 92.7916 30.1042 91.8333 31.25 91.8333C31.8026 91.8333 32.3325 92.0527 32.7232 92.4434C33.1139 92.8341 33.3334 93.3641 33.3334 93.9166C33.3334 95.0833 32.3959 95.9999 31.25 95.9999ZM41.3542 99.8958C40.75 96.0833 39.0209 88.5416 34.6459 83.7291C35.4167 83.6249 36.2709 83.4999 37.3959 83.4999C39.1667 84.3333 43.2292 93.3541 43.75 99.1249C43.2292 99.3541 42.4167 99.6458 41.3542 99.8958Z" fill="black"/>
<path d="M525.25 240.5H529.417L532.063 237.854C533.019 236.896 534.313 236.35 535.667 236.333H540.875C541.167 235.164 541.835 234.123 542.776 233.37C543.717 232.618 544.879 232.195 546.083 232.167V245.417C545.976 247.521 545.145 249.523 543.729 251.083C541.399 253.324 538.351 254.667 535.125 254.875L527.938 252C527.094 251.661 526.335 251.143 525.712 250.481C525.09 249.819 524.619 249.029 524.333 248.167L523.167 244.979C523.135 244.765 523.135 244.547 523.167 244.333V242.583C523.167 242.031 523.386 241.501 523.777 241.11C524.168 240.719 524.698 240.5 525.25 240.5ZM535.667 244.667C536.079 244.667 536.482 244.544 536.824 244.316C537.167 244.087 537.434 243.761 537.591 243.381C537.749 243 537.79 242.581 537.71 242.177C537.63 241.773 537.431 241.402 537.14 241.11C536.848 240.819 536.477 240.62 536.073 240.54C535.669 240.46 535.25 240.501 534.869 240.659C534.489 240.816 534.163 241.083 533.934 241.426C533.706 241.768 533.583 242.171 533.583 242.583C533.583 243.136 533.803 243.666 534.194 244.056C534.584 244.447 535.114 244.667 535.667 244.667Z" fill="black"/>
<path d="M545.292 252.458C546.745 250.867 547.694 248.88 548.021 246.75H556.5C557.057 246.787 557.615 246.704 558.137 246.508C558.659 246.312 559.133 246.006 559.528 245.611C559.922 245.217 560.228 244.743 560.425 244.22C560.621 243.698 560.703 243.14 560.667 242.583C560.667 242.031 560.886 241.501 561.277 241.11C561.667 240.719 562.197 240.5 562.75 240.5C563.302 240.5 563.832 240.719 564.223 241.11C564.614 241.501 564.833 242.031 564.833 242.583C564.812 244.029 564.471 245.452 563.833 246.75C563.13 248.113 562.025 249.226 560.667 249.938V273.833H554.417V263.417H541.917V273.833H535.667V256.896C539.301 256.61 542.714 255.036 545.292 252.458Z" fill="black"/>
<path d="M30.5918 288.755L36.3309 280.465C36.7562 279.851 37.3216 279.349 37.9801 278.997C38.6386 278.646 39.3713 278.457 40.1175 278.446L51.0088 278.29H51.0312C56.6542 278.29 60.9685 279.23 63.7471 283.82C66.334 288.093 67.4375 295.371 67.4375 308.156V309.719H63.8675L66.1656 321.438H62.9811L60.6829 309.719H59.625C57.0731 309.742 54.6146 308.76 52.7805 306.985C51.1224 305.399 49.9264 303.228 49.3216 300.708L49.3161 300.686L46.6361 287.844H49.8285L52.3655 300.001C53.1382 303.192 55.4486 306.594 59.625 306.594H64.3066C64.2218 295.533 63.2146 288.975 61.0737 285.438C59.2769 282.469 56.6504 281.416 51.0421 281.414L40.1624 281.57C39.9137 281.574 39.6694 281.637 39.4499 281.754C39.2304 281.871 39.042 282.039 38.9002 282.243L32.4082 291.62L23.6875 293.074V294.73L25.1418 302.486C25.571 304.775 26.3047 305.928 29.3135 306.289L41.648 308.4L41.7296 321.438H38.6046L38.5395 311.038L28.9008 309.387C26.7172 309.119 25.1062 308.415 23.9764 307.237C23.0105 306.229 22.4228 304.942 22.0702 303.062L20.5625 295.02V290.426L30.5918 288.755Z" fill="#FF56F8"/>
<path d="M283.917 12.5001C286.218 12.5001 288.083 10.6346 288.083 8.33341C288.083 6.03223 286.218 4.16675 283.917 4.16675C281.615 4.16675 279.75 6.03223 279.75 8.33341C279.75 10.6346 281.615 12.5001 283.917 12.5001Z" stroke="#DF8B8B" stroke-width="5" stroke-linecap="round" stroke-linejoin="round"/>
<path d="M298.5 20.8333C300.801 20.8333 302.667 18.9679 302.667 16.6667C302.667 14.3655 300.801 12.5 298.5 12.5C296.199 12.5 294.333 14.3655 294.333 16.6667C294.333 18.9679 296.199 20.8333 298.5 20.8333Z" stroke="#DF8B8B" stroke-width="5" stroke-linecap="round" stroke-linejoin="round"/>
<path d="M302.667 37.5001C304.968 37.5001 306.833 35.6346 306.833 33.3334C306.833 31.0322 304.968 29.1667 302.667 29.1667C300.365 29.1667 298.5 31.0322 298.5 33.3334C298.5 35.6346 300.365 37.5001 302.667 37.5001Z" stroke="#DF8B8B" stroke-width="5" stroke-linecap="round" stroke-linejoin="round"/>
<path d="M279.75 20.8335C281.118 20.8335 282.473 21.1029 283.736 21.6264C285 22.1499 286.148 22.9172 287.116 23.8845C288.083 24.8517 288.85 26.0001 289.374 27.2639C289.897 28.5277 290.167 29.8822 290.167 31.2502V38.5418C290.166 40.2845 289.542 41.9693 288.406 43.2911C287.27 44.6129 285.699 45.4843 283.976 45.7475C282.254 46.0107 280.494 45.6482 279.015 44.7258C277.537 43.8033 276.438 42.3819 275.917 40.7189C275.028 37.8509 273.153 35.9724 270.292 35.0835C268.63 34.5629 267.209 33.4646 266.286 31.9872C265.364 30.5098 265 28.751 265.262 27.0291C265.524 25.3071 266.394 23.7358 267.714 22.5994C269.034 21.4629 270.717 20.8365 272.458 20.8335H279.75Z" stroke="#DF8B8B" stroke-width="5" stroke-linecap="round" stroke-linejoin="round"/>
<path d="M182.083 445.5C179.782 445.5 177.917 443.634 177.917 441.333C177.917 439.032 179.782 437.167 182.083 437.167C184.385 437.167 186.25 439.032 186.25 441.333C186.25 443.634 184.385 445.5 182.083 445.5Z" stroke="black" stroke-width="5" stroke-linecap="round" stroke-linejoin="round"/>
<path d="M167.5 453.833C165.199 453.833 163.333 451.968 163.333 449.667C163.333 447.365 165.199 445.5 167.5 445.5C169.801 445.5 171.667 447.365 171.667 449.667C171.667 451.968 169.801 453.833 167.5 453.833Z" stroke="black" stroke-width="5" stroke-linecap="round" stroke-linejoin="round"/>
<path d="M163.333 470.5C161.032 470.5 159.167 468.634 159.167 466.333C159.167 464.032 161.032 462.167 163.333 462.167C165.635 462.167 167.5 464.032 167.5 466.333C167.5 468.634 165.635 470.5 163.333 470.5Z" stroke="black" stroke-width="5" stroke-linecap="round" stroke-linejoin="round"/>
<path d="M186.25 453.833C184.882 453.833 183.527 454.103 182.264 454.626C181 455.15 179.852 455.917 178.884 456.884C177.917 457.851 177.15 459 176.626 460.264C176.103 461.527 175.833 462.882 175.833 464.25V471.542C175.834 473.284 176.458 474.969 177.594 476.291C178.73 477.613 180.301 478.484 182.024 478.747C183.746 479.01 185.506 478.648 186.985 477.726C188.463 476.803 189.562 475.382 190.083 473.719C190.972 470.851 192.847 468.972 195.708 468.083C197.37 467.563 198.791 466.464 199.714 464.987C200.636 463.51 201 461.751 200.738 460.029C200.476 458.307 199.606 456.736 198.286 455.599C196.966 454.463 195.283 453.836 193.542 453.833H186.25Z" stroke="black" stroke-width="5" stroke-linecap="round" stroke-linejoin="round"/>
<path d="M413.25 470C414.109 470 414.812 469.297 414.812 468.438V466.875C414.812 466.016 414.109 465.312 413.25 465.312C412.391 465.312 411.688 466.016 411.688 466.875V468.438C411.688 469.297 412.391 470 413.25 470ZM391.234 453.594C393.062 453.594 394.625 454.812 395.109 456.484C394.578 457.016 394.141 457.625 393.781 458.281H391.516C390.442 458.281 389.413 457.855 388.654 457.096C387.895 456.337 387.469 455.308 387.469 454.234V453.922C387.469 453.734 387.609 453.594 387.797 453.594H391.234ZM403.875 477.812C403.875 478.227 403.71 478.624 403.417 478.917C403.124 479.21 402.727 479.375 402.312 479.375C401.898 479.375 401.501 479.21 401.208 478.917C400.915 478.624 400.75 478.227 400.75 477.812C400.75 477.398 400.915 477.001 401.208 476.708C401.501 476.415 401.898 476.25 402.312 476.25C402.727 476.25 403.124 476.415 403.417 476.708C403.71 477.001 403.875 477.398 403.875 477.812ZM411.688 479.375C412.102 479.375 412.499 479.21 412.792 478.917C413.085 478.624 413.25 478.227 413.25 477.812C413.25 477.398 413.085 477.001 412.792 476.708C412.499 476.415 412.102 476.25 411.688 476.25C411.273 476.25 410.876 476.415 410.583 476.708C410.29 477.001 410.125 477.398 410.125 477.812C410.125 478.227 410.29 478.624 410.583 478.917C410.876 479.21 411.273 479.375 411.688 479.375Z" fill="black" fill-opacity="0.3"/>
<path d="M402.545 446.714L402.53 446.722C402.062 446.908 401.583 447.144 401.108 447.472C399.136 448.777 397.889 450.672 397.664 452.892C396.942 451.901 395.996 451.093 394.903 450.537C393.811 449.98 392.602 449.689 391.375 449.688H385.906C385.285 449.688 384.689 449.934 384.249 450.374C383.809 450.814 383.562 451.41 383.562 452.031V454.375C383.562 456.447 384.386 458.434 385.851 459.899C386.576 460.625 387.437 461.2 388.385 461.593C389.333 461.985 390.349 462.188 391.375 462.188V474.808C390.385 476.365 389.844 478.166 389.812 480.011C389.778 482.661 390.78 485.22 392.606 487.142C394.432 489.063 396.937 490.194 399.586 490.294C400.55 491.284 401.703 492.07 402.977 492.607C404.25 493.145 405.618 493.421 407 493.421C408.382 493.421 409.75 493.145 411.023 492.607C412.297 492.07 413.45 491.284 414.414 490.294C417.063 490.194 419.568 489.063 421.394 487.142C423.22 485.22 424.222 482.661 424.188 480.011C424.157 478.164 423.616 476.361 422.625 474.802V462.188C424.697 462.188 426.684 461.364 428.149 459.899C429.614 458.434 430.438 456.447 430.438 454.375V452.031C430.438 451.41 430.191 450.814 429.751 450.374C429.311 449.934 428.715 449.688 428.094 449.688H422.625C420.785 449.689 419.005 450.342 417.6 451.531C417.086 449.906 415.997 448.492 414.453 447.472C414.009 447.169 413.533 446.918 413.033 446.722L413.017 446.714C411.178 446.003 409.523 447.903 410.295 449.613L410.3 449.625L410.306 449.638C410.803 450.684 410.905 451.736 410.534 452.813H405.312C405.267 452.581 405.226 452.349 405.192 452.116C405.115 451.618 405.08 451.115 405.087 450.611C405.103 450.122 405.178 449.806 405.258 449.638L405.264 449.625L405.269 449.613C406.041 447.903 404.384 446.003 402.545 446.714ZM399.969 455.938H408.562L410.719 458.094C411.523 458.897 412.478 459.534 413.529 459.969C414.58 460.403 415.707 460.626 416.844 460.625H419.448L419.467 460.797C419.489 461 419.5 461.203 419.5 461.406V473.897C417.849 472.872 415.943 472.334 414 472.345H405.438V470.188C405.438 466.156 403.312 462.078 399.969 459.844C398.3 458.727 394.5 459.063 394.5 459.063H391.375C390.132 459.063 388.94 458.569 388.06 457.69C387.181 456.811 386.688 455.618 386.688 454.375V452.813H391.375C392.285 452.812 393.176 453.077 393.939 453.574C394.701 454.072 395.302 454.781 395.669 455.614L396.302 457.055L397.737 456.411C398.441 456.098 399.2 455.936 399.969 455.938ZM399.969 487.188C399.037 487.188 398.114 487.002 397.254 486.642C396.394 486.283 395.614 485.755 394.96 485.091C394.305 484.427 393.79 483.64 393.442 482.774C393.095 481.909 392.924 480.984 392.938 480.052C392.956 478.646 393.401 477.28 394.214 476.133L394.323 475.978C395.77 474.684 397.823 473.869 400.127 473.908H414.002C416.255 473.902 418.259 474.708 419.678 475.975L419.786 476.128C420.598 477.277 421.045 478.644 421.062 480.052C421.076 480.984 420.904 481.909 420.557 482.774C420.21 483.639 419.694 484.427 419.04 485.091C418.386 485.755 417.606 486.282 416.746 486.642C415.886 487.002 414.963 487.187 414.031 487.188H399.969ZM402.513 488.75H411.475C410.422 489.576 409.162 490.094 407.833 490.249C406.504 490.403 405.158 490.187 403.944 489.625C403.434 489.39 402.954 489.096 402.513 488.75ZM422.625 459.063H420.575C420.472 458.795 420.353 458.534 420.219 458.281H422.484C423.558 458.281 424.587 457.855 425.346 457.096C426.105 456.337 426.531 455.308 426.531 454.234V453.922C426.531 453.734 426.391 453.594 426.203 453.594H422.766C420.938 453.594 419.375 454.813 418.891 456.484C418.906 456.5 418.917 456.514 418.928 456.53C418.7 456.301 418.457 456.088 418.202 455.891L418.323 455.609C418.691 454.776 419.294 454.067 420.058 453.57C420.822 453.073 421.714 452.81 422.625 452.813H427.312V454.375C427.312 455.618 426.819 456.811 425.94 457.69C425.06 458.569 423.868 459.063 422.625 459.063ZM399.188 468.438V466.875C399.188 466.016 399.891 465.313 400.75 465.313C401.609 465.313 402.312 466.016 402.312 466.875V468.438C402.312 469.297 401.609 470 400.75 470C399.891 470 399.188 469.297 399.188 468.438Z" fill="black" fill-opacity="0.3"/>
<path d="M547.281 569.11C547.227 568.991 547.167 568.882 547.11 568.769C550.711 565.329 545.845 559.521 545.845 559.521C545.845 559.521 544.502 563.359 544.207 566.046C544.155 566.033 544.102 566.013 544.049 566.003C541.528 565.54 538.626 565.324 534.916 565.324C533.206 565.324 531.566 565.368 529.979 565.409C528.609 565.445 527.314 565.48 526.152 565.48C521.975 565.48 521.329 564.946 521.23 564.784C521.233 562.746 520.83 560.82 520.06 559.152C521.392 557.247 521.408 554.577 520.973 553.439C520.612 552.49 519.929 552.387 519.652 552.387C519.459 552.387 519.273 552.431 519.096 552.519C518.836 552.647 518.417 552.856 517.93 553.123C519.822 551.6 522.348 551.473 522.348 551.473C517.969 549.852 515.512 551.715 514.277 553.761C515.333 550.138 519.453 548.57 519.453 548.57C513.78 548.373 511.765 551.677 511.213 554.496C510.226 554.848 509.276 555.442 508.402 556.276C506.539 558.055 506.184 559.414 505.809 560.852C505.415 562.359 504.925 564.236 502.255 567.688C501.365 568.841 501.523 569.852 501.698 570.352C502.117 571.554 503.414 572.41 505.445 572.827C505.478 572.834 505.518 572.84 505.554 572.846C505.439 575.893 509.435 577.279 509.435 577.279C509.435 577.279 508.122 574.959 509.077 571.77L509.088 571.763C509.491 571.543 510.027 571.465 510.597 571.383C511.217 571.293 511.975 571.183 512.681 570.818C513.059 574.077 514.172 579.002 517.388 582.981C517.536 583.73 517.967 586.969 516.295 593.955L515.94 595.438H520.71L520.985 594.655L523.309 588.032L523.399 587.776L523.373 587.504C523.278 586.502 523.292 585.381 523.392 584.757C524.368 585.028 525.565 585.161 527.027 585.161C531.205 585.161 536.302 584.054 538.275 583.584C539.293 585.096 540.981 586.405 541.979 587.102C541.654 588.341 541.19 590.753 541.254 594.266L541.276 595.438H546.045L546.185 594.412C546.441 592.527 547.747 585.852 547.76 585.785L547.827 585.447L547.709 585.124C546.9 582.891 546.903 581.703 546.929 581.354C549.087 577.161 548.635 572.09 547.281 569.11ZM546.64 585.547C546.64 585.547 545.78 589.934 545.309 592.655H542.408C542.523 588.66 543.336 586.589 543.336 586.589C543.336 586.589 539.858 584.446 538.824 582.224C538.824 582.224 532.134 583.969 527.027 583.969C525.551 583.969 524.208 583.823 523.196 583.447C523.13 583.421 523.059 583.407 522.987 583.405C521.83 583.405 522.235 587.622 522.235 587.622L520.469 592.653H517.763C519.352 585.177 518.43 582.416 518.43 582.416C513.294 576.263 513.643 567.352 513.643 567.352C513.008 570.929 510.391 569.7 508.556 570.706C507.132 571.488 506.635 571.718 506.156 571.718C505.991 571.714 505.827 571.694 505.666 571.656C503.323 571.175 501.947 569.987 503.145 568.438C508.407 561.631 505.687 560.485 509.173 557.157C509.784 556.574 510.415 556.145 511.049 555.845C510.984 557.173 511.216 558.19 511.438 558.329C512.399 558.931 514.541 558.502 514.221 557.105C514.089 556.541 514.026 555.962 514.035 555.382C514.665 555.48 515.273 555.69 515.829 556.002C517.047 554.859 518.828 553.972 519.586 553.597C519.606 553.586 519.628 553.58 519.651 553.58C520.205 553.581 520.531 557.165 518.683 558.988C519.555 560.555 520.088 562.534 520.088 564.769C520.088 566.349 522.538 566.673 526.151 566.673C528.657 566.673 531.72 566.517 534.916 566.517C537.897 566.517 540.995 566.654 543.852 567.179C546.782 567.716 548.762 575.512 545.83 580.965C545.83 580.965 545.465 582.313 546.64 585.547Z" fill="black" fill-opacity="0.3"/>
<path d="M510.133 563.33C510.774 563.33 511.293 562.808 511.293 562.163C511.293 561.519 510.774 560.996 510.133 560.996C509.492 560.996 508.973 561.519 508.973 562.163C508.973 562.808 509.492 563.33 510.133 563.33Z" fill="black" fill-opacity="0.3"/>
<path d="M504.012 568.59C503.899 568.755 503.816 569.153 503.972 569.269C504.129 569.388 504.468 569.181 504.58 569.018C504.635 568.939 504.658 568.842 504.643 568.747C504.628 568.652 504.578 568.566 504.502 568.508C504.465 568.48 504.422 568.459 504.377 568.448C504.332 568.437 504.285 568.436 504.239 568.443C504.193 568.451 504.15 568.468 504.111 568.493C504.072 568.518 504.038 568.551 504.012 568.59ZM508.173 568.457C508.039 568.898 507.853 569.321 507.62 569.719C507.159 570.512 506.477 571.126 505.687 571.649C506.15 571.529 506.586 571.318 506.968 571.029C507.361 570.728 507.693 570.354 507.947 569.929C508.45 569.068 508.654 568.019 508.459 567.062C508.408 567.535 508.312 568.002 508.173 568.457ZM519.26 554.919C518.858 555.095 516.105 556.496 515.695 557.798C515.416 558.677 515.543 558.651 515.839 558.34C516.139 558.025 516.943 557.812 516.612 558.025C516.283 558.239 516.101 558.496 516.47 558.371C516.834 558.252 517.441 558.216 516.931 558.42C516.423 558.623 515.76 559.119 515.912 559.358C516.066 559.591 516.367 559.542 516.643 559.418C519.702 558.062 519.73 554.713 519.26 554.919Z" fill="black" fill-opacity="0.3"/>
<path d="M242 648.833C251.78 648.833 259.708 643.237 259.708 636.333C259.708 629.43 251.78 623.833 242 623.833C232.22 623.833 224.292 629.43 224.292 636.333C224.292 643.237 232.22 648.833 242 648.833Z" stroke="black" stroke-opacity="0.3" stroke-width="5"/>
<path d="M235.75 635.721C236.901 635.721 237.833 634.788 237.833 633.638C237.833 632.487 236.901 631.554 235.75 631.554C234.599 631.554 233.667 632.487 233.667 633.638C233.667 634.788 234.599 635.721 235.75 635.721Z" fill="black" fill-opacity="0.3"/>
<path d="M242 641.971C243.151 641.971 244.083 641.038 244.083 639.888C244.083 638.737 243.151 637.804 242 637.804C240.849 637.804 239.917 638.737 239.917 639.888C239.917 641.038 240.849 641.971 242 641.971Z" fill="black" fill-opacity="0.3"/>
<path d="M248.25 635.721C249.401 635.721 250.333 634.788 250.333 633.638C250.333 632.487 249.401 631.554 248.25 631.554C247.099 631.554 246.167 632.487 246.167 633.638C246.167 634.788 247.099 635.721 248.25 635.721Z" fill="black" fill-opacity="0.3"/>
<path d="M230.195 625.917C228.825 622.618 226.437 614.576 227.847 609.159C228.239 608.118 229.725 606.347 232.544 607.597C232.934 607.77 233.835 608.43 234.304 609.68C235.479 611.764 233.719 624.875 233.719 624.875M253.861 625.917C255.232 622.618 257.554 614.576 256.145 609.159C255.753 608.118 254.266 606.347 251.447 607.597C251.055 607.77 250.155 608.43 249.685 609.68C248.51 611.764 250.337 623.833 250.337 623.833" stroke="black" stroke-opacity="0.3" stroke-width="5" stroke-linecap="round" stroke-linejoin="round"/>
<path d="M478.667 715.792V706.333C478.667 705.228 478.228 704.168 477.446 703.387C476.665 702.606 475.605 702.167 474.5 702.167C473.395 702.167 472.335 702.606 471.554 703.387C470.772 704.168 470.333 705.228 470.333 706.333V712.583" stroke="black" stroke-opacity="0.3" stroke-width="5" stroke-linecap="round" stroke-linejoin="round"/>
<path d="M474.5 741.75H457.833C455.623 741.75 453.504 740.872 451.941 739.309C450.378 737.746 449.5 735.627 449.5 733.417C449.5 729.549 451.036 725.84 453.771 723.105C456.506 720.37 460.216 718.833 464.083 718.833H464.5L457 711.333C456.617 710.95 456.313 710.496 456.106 709.995C455.899 709.495 455.792 708.958 455.792 708.417C455.792 707.323 456.226 706.274 457 705.5C457.774 704.726 458.823 704.292 459.917 704.292C460.458 704.292 460.995 704.399 461.495 704.606C461.996 704.813 462.45 705.117 462.833 705.5L469.917 712.583H470.333C477.208 712.583 482.833 718.208 482.833 725.083V727.167C482.833 728.272 482.394 729.332 481.613 730.113C480.832 730.894 479.772 731.333 478.667 731.333H476.583C473.042 731.333 470.333 734.042 470.333 737.583" stroke="black" stroke-opacity="0.3" stroke-width="5" stroke-linecap="round" stroke-linejoin="round"/>
<path d="M452.854 724.104C452.268 723.067 451.399 722.219 450.347 721.66C449.296 721.101 448.106 720.854 446.919 720.948C445.732 721.042 444.597 721.473 443.646 722.191C442.696 722.909 441.97 723.883 441.555 724.999C441.14 726.115 441.052 727.327 441.302 728.491C441.552 729.655 442.13 730.724 442.966 731.571C443.803 732.418 444.865 733.009 446.026 733.273C447.187 733.537 448.4 733.464 449.521 733.062M464.083 731.333C465.291 731.332 466.472 731.68 467.486 732.335C468.5 732.991 469.302 733.926 469.795 735.028C470.289 736.13 470.453 737.351 470.267 738.544C470.082 739.737 469.555 740.85 468.75 741.75M474.5 723H474.521" stroke="black" stroke-opacity="0.3" stroke-width="5" stroke-linecap="round" stroke-linejoin="round"/>
<path d="M426.083 173.5C423.782 173.5 421.917 171.634 421.917 169.333C421.917 167.032 423.782 165.167 426.083 165.167C428.385 165.167 430.25 167.032 430.25 169.333C430.25 171.634 428.385 173.5 426.083 173.5Z" stroke="#B79A35" stroke-width="5" stroke-linecap="round" stroke-linejoin="round"/>
<path d="M411.5 181.833C409.199 181.833 407.333 179.968 407.333 177.667C407.333 175.365 409.199 173.5 411.5 173.5C413.801 173.5 415.667 175.365 415.667 177.667C415.667 179.968 413.801 181.833 411.5 181.833Z" stroke="#B79A35" stroke-width="5" stroke-linecap="round" stroke-linejoin="round"/>
<path d="M407.333 198.5C405.032 198.5 403.167 196.634 403.167 194.333C403.167 192.032 405.032 190.167 407.333 190.167C409.635 190.167 411.5 192.032 411.5 194.333C411.5 196.634 409.635 198.5 407.333 198.5Z" stroke="#B79A35" stroke-width="5" stroke-linecap="round" stroke-linejoin="round"/>
<path d="M430.25 181.833C428.882 181.833 427.527 182.103 426.264 182.626C425 183.15 423.852 183.917 422.884 184.884C421.917 185.851 421.15 187 420.626 188.264C420.103 189.527 419.833 190.882 419.833 192.25V199.542C419.834 201.284 420.458 202.969 421.594 204.291C422.73 205.613 424.301 206.484 426.024 206.747C427.746 207.01 429.506 206.648 430.985 205.726C432.463 204.803 433.562 203.382 434.083 201.719C434.972 198.851 436.847 196.972 439.708 196.083C441.37 195.563 442.791 194.464 443.714 192.987C444.636 191.51 445 189.751 444.738 188.029C444.476 186.307 443.606 184.736 442.286 183.599C440.966 182.463 439.283 181.836 437.542 181.833H430.25Z" stroke="#B79A35" stroke-width="5" stroke-linecap="round" stroke-linejoin="round"/>
<path d="M319.083 764.5C316.782 764.5 314.917 762.634 314.917 760.333C314.917 758.032 316.782 756.167 319.083 756.167C321.385 756.167 323.25 758.032 323.25 760.333C323.25 762.634 321.385 764.5 319.083 764.5Z" stroke="#5BDD87" stroke-width="5" stroke-linecap="round" stroke-linejoin="round"/>
<path d="M304.5 772.833C302.199 772.833 300.333 770.968 300.333 768.667C300.333 766.365 302.199 764.5 304.5 764.5C306.801 764.5 308.667 766.365 308.667 768.667C308.667 770.968 306.801 772.833 304.5 772.833Z" stroke="#5BDD87" stroke-width="5" stroke-linecap="round" stroke-linejoin="round"/>
<path d="M300.333 789.5C298.032 789.5 296.167 787.634 296.167 785.333C296.167 783.032 298.032 781.167 300.333 781.167C302.635 781.167 304.5 783.032 304.5 785.333C304.5 787.634 302.635 789.5 300.333 789.5Z" stroke="#5BDD87" stroke-width="5" stroke-linecap="round" stroke-linejoin="round"/>
<path d="M323.25 772.833C321.882 772.833 320.527 773.103 319.264 773.626C318 774.15 316.852 774.917 315.884 775.884C314.917 776.851 314.15 778 313.626 779.264C313.103 780.527 312.833 781.882 312.833 783.25V790.542C312.834 792.284 313.458 793.969 314.594 795.291C315.73 796.613 317.301 797.484 319.024 797.747C320.746 798.01 322.506 797.648 323.985 796.726C325.463 795.803 326.562 794.382 327.083 792.719C327.972 789.851 329.847 787.972 332.708 787.083C334.37 786.563 335.791 785.464 336.714 783.987C337.636 782.51 338 780.751 337.738 779.029C337.476 777.307 336.606 775.736 335.286 774.599C333.966 773.463 332.283 772.836 330.542 772.833H323.25Z" stroke="#5BDD87" stroke-width="5" stroke-linecap="round" stroke-linejoin="round"/>
</svg>
