<svg width="1409" height="660" viewBox="0 0 1409 660" fill="none" xmlns="http://www.w3.org/2000/svg">
<path d="M1402.64 608.828L1396.22 574.453C1396.07 573.615 1395.74 572.818 1395.26 572.111C1394.79 571.404 1394.17 570.802 1393.45 570.342C1392.74 569.881 1391.93 569.573 1391.09 569.435C1390.25 569.297 1389.39 569.332 1388.56 569.539L1388.44 569.574L1367.93 575.625H1350.07L1329.56 569.594L1329.44 569.559C1328.61 569.352 1327.75 569.316 1326.91 569.454C1326.07 569.592 1325.26 569.901 1324.55 570.361C1323.83 570.821 1323.21 571.424 1322.74 572.131C1322.26 572.838 1321.93 573.635 1321.78 574.473L1315.36 608.828C1315.09 610.204 1315.29 611.632 1315.94 612.877C1316.59 614.121 1317.64 615.107 1318.93 615.672C1319.75 616.049 1320.64 616.246 1321.55 616.25C1322.63 616.25 1323.69 615.958 1324.62 615.406V631.875C1324.62 636.019 1326.27 639.993 1329.2 642.924C1332.13 645.854 1336.11 647.5 1340.25 647.5H1377.75C1381.89 647.5 1385.87 645.854 1388.8 642.924C1391.73 639.993 1393.37 636.019 1393.37 631.875V615.41C1394.31 615.961 1395.37 616.252 1396.45 616.254C1397.36 616.251 1398.25 616.056 1399.07 615.68C1400.36 615.115 1401.41 614.128 1402.06 612.881C1402.71 611.635 1402.91 610.205 1402.64 608.828ZM1321.5 610L1327.92 575.625L1344.35 580.457L1321.5 610ZM1377.75 641.25H1362.12V636.293L1367.46 630.961C1368.05 630.375 1368.38 629.579 1368.38 628.75C1368.38 627.921 1368.05 627.125 1367.46 626.539C1366.87 625.953 1366.08 625.623 1365.25 625.623C1364.42 625.623 1363.63 625.953 1363.04 626.539L1359 630.582L1354.96 626.539C1354.37 625.953 1353.58 625.623 1352.75 625.623C1351.92 625.623 1351.13 625.953 1350.54 626.539C1349.95 627.125 1349.62 627.921 1349.62 628.75C1349.62 629.579 1349.95 630.375 1350.54 630.961L1355.87 636.293V641.25H1340.25C1337.76 641.25 1335.38 640.262 1333.62 638.504C1331.86 636.746 1330.87 634.361 1330.87 631.875V608.09L1351.16 581.875H1366.84L1387.12 608.09V631.875C1387.12 634.361 1386.14 636.746 1384.38 638.504C1382.62 640.262 1380.24 641.25 1377.75 641.25ZM1396.5 610L1373.65 580.457L1390.08 575.625L1396.5 610ZM1349.62 614.688C1349.62 615.615 1349.35 616.521 1348.83 617.292C1348.32 618.063 1347.59 618.663 1346.73 619.018C1345.87 619.373 1344.93 619.466 1344.02 619.285C1343.11 619.104 1342.28 618.658 1341.62 618.002C1340.97 617.347 1340.52 616.511 1340.34 615.602C1340.16 614.693 1340.25 613.75 1340.61 612.894C1340.96 612.037 1341.56 611.305 1342.33 610.79C1343.1 610.275 1344.01 610 1344.94 610C1346.18 610 1347.37 610.494 1348.25 611.373C1349.13 612.252 1349.62 613.444 1349.62 614.688ZM1377.75 614.688C1377.75 615.615 1377.48 616.521 1376.96 617.292C1376.44 618.063 1375.71 618.663 1374.86 619.018C1374 619.373 1373.06 619.466 1372.15 619.285C1371.24 619.104 1370.4 618.658 1369.75 618.002C1369.09 617.347 1368.65 616.511 1368.47 615.602C1368.28 614.693 1368.38 613.75 1368.73 612.894C1369.09 612.037 1369.69 611.305 1370.46 610.79C1371.23 610.275 1372.14 610 1373.06 610C1374.31 610 1375.5 610.494 1376.38 611.373C1377.26 612.252 1377.75 613.444 1377.75 614.688Z" fill="#9E9E9E"/>
<path d="M75 33.3333L69.4583 33.7083C65.875 29.4583 55.8333 18.75 45.8333 18.75C45.8333 18.75 37.625 31.0833 45.6667 47.5417C43.375 51 41.9583 52.7917 41.6667 56.9167L33.625 58.125L34.5 62.2083L41.8333 61.125L42.4167 64.0833L35.875 68L37.8333 71.7083L43.875 68C48.6667 78.1667 60.7917 83.3333 75 83.3333C89.2083 83.3333 101.333 78.1667 106.125 68L112.167 71.7083L114.125 68L107.583 64.0833L108.167 61.125L115.5 62.2083L116.375 58.125L108.333 56.9167C108.042 52.7917 106.625 51 104.333 47.5417C112.375 31.0833 104.167 18.75 104.167 18.75C94.1667 18.75 84.125 29.4583 80.5417 33.7083L75 33.3333ZM62.5 45.8333C63.6051 45.8333 64.6649 46.2723 65.4463 47.0537C66.2277 47.8351 66.6667 48.8949 66.6667 50C66.6667 51.1051 66.2277 52.1649 65.4463 52.9463C64.6649 53.7277 63.6051 54.1667 62.5 54.1667C61.3949 54.1667 60.3351 53.7277 59.5537 52.9463C58.7723 52.1649 58.3333 51.1051 58.3333 50C58.3333 48.8949 58.7723 47.8351 59.5537 47.0537C60.3351 46.2723 61.3949 45.8333 62.5 45.8333ZM87.5 45.8333C88.6051 45.8333 89.6649 46.2723 90.4463 47.0537C91.2277 47.8351 91.6667 48.8949 91.6667 50C91.6667 51.1051 91.2277 52.1649 90.4463 52.9463C89.6649 53.7277 88.6051 54.1667 87.5 54.1667C86.3949 54.1667 85.3351 53.7277 84.5537 52.9463C83.7723 52.1649 83.3333 51.1051 83.3333 50C83.3333 48.8949 83.7723 47.8351 84.5537 47.0537C85.3351 46.2723 86.3949 45.8333 87.5 45.8333ZM70.8333 58.3333H79.1667L76.25 64.125C77.0833 66.7917 79.4167 68.75 82.2917 68.75C83.9493 68.75 85.539 68.0915 86.7111 66.9194C87.8832 65.7473 88.5417 64.1576 88.5417 62.5H90.625C90.625 64.7101 89.747 66.8298 88.1842 68.3926C86.6214 69.9554 84.5018 70.8333 82.2917 70.8333C79.1667 70.8333 76.4583 69.125 75 66.6667C73.5417 69.125 70.8333 70.8333 67.7083 70.8333C65.4982 70.8333 63.3786 69.9554 61.8158 68.3926C60.253 66.8298 59.375 64.7101 59.375 62.5H61.4583C61.4583 64.1576 62.1168 65.7473 63.2889 66.9194C64.461 68.0915 66.0507 68.75 67.7083 68.75C70.5833 68.75 72.9167 66.7917 73.75 64.125L70.8333 58.3333Z" fill="#9E9E9E"/>
<path fill-rule="evenodd" clip-rule="evenodd" d="M50.0833 615.237C48.8667 615.237 47.625 615.425 46.575 615.833C45.9501 616.066 45.3737 616.412 44.875 616.854C44.4775 617.208 44.1584 617.641 43.9381 618.125C43.7178 618.61 43.6012 619.135 43.5958 619.667C43.5958 621.021 44.3167 621.967 44.875 622.475C45.4292 622.987 46.0625 623.3 46.575 623.5C47.6292 623.908 48.8667 624.092 50.0833 624.092C51.2917 624.092 52.5333 623.908 53.5833 623.5C54.1042 623.3 54.7333 622.987 55.2917 622.475C55.6881 622.122 56.0063 621.689 56.2258 621.206C56.4454 620.722 56.5615 620.198 56.5667 619.667C56.5615 619.135 56.4451 618.609 56.2248 618.125C56.0044 617.641 55.6852 617.208 55.2875 616.854C54.7888 616.412 54.2124 616.066 53.5875 615.833C52.4649 615.425 51.2778 615.223 50.0833 615.237Z" fill="#9E9E9E"/>
<path d="M58.4875 605.692C59.1709 604.583 60.5292 603.258 62.5709 603.258C64.6042 603.258 65.9625 604.583 66.65 605.692C67.3667 606.85 67.7084 608.254 67.7084 609.642C67.7084 611.025 67.3667 612.433 66.65 613.587C65.9625 614.696 64.6084 616.021 62.5667 616.021C60.5292 616.021 59.1709 614.696 58.4834 613.587C57.7745 612.395 57.4083 611.029 57.425 609.642C57.425 608.254 57.7667 606.85 58.4875 605.692ZM37.5667 603.262C35.5334 603.262 34.175 604.583 33.4834 605.692C32.7737 606.886 32.4075 608.253 32.425 609.642C32.425 611.025 32.7667 612.433 33.4875 613.587C34.175 614.696 35.5292 616.021 37.5709 616.021C39.6042 616.021 40.9625 614.696 41.6542 613.587C42.3667 612.429 42.7084 611.025 42.7084 609.642C42.7084 608.254 42.3667 606.85 41.65 605.692C40.9625 604.583 39.6084 603.262 37.5667 603.262Z" fill="#9E9E9E"/>
<path fill-rule="evenodd" clip-rule="evenodd" d="M25.3958 570.708C22.8375 570.708 19.8958 571.454 17.5375 573.483C15.0917 575.588 13.625 578.783 13.625 582.946V590.771C13.6292 591.996 13.8375 594.45 14.5375 596.496C14.7667 597.167 15.1292 598.054 15.7417 598.858C14.6515 601.085 13.9739 603.49 13.7417 605.958C13.5292 607.904 13.525 609.95 13.5583 611.838C10.8083 612.796 7.95415 613.979 6.64165 614.829C5.96807 615.288 5.50053 615.992 5.33877 616.791C5.17701 617.59 5.33383 618.421 5.77579 619.106C6.21774 619.791 6.90984 620.276 7.70445 620.458C8.49906 620.64 9.33328 620.504 10.0292 620.079C10.5125 619.767 11.9458 619.108 13.8292 618.392C14.1167 620.388 14.6958 622.204 15.5083 623.858C14.785 624.31 14.0683 624.773 13.3583 625.246C13.0136 625.469 12.7161 625.757 12.4829 626.095C12.2496 626.432 12.0851 626.813 11.9989 627.214C11.9126 627.615 11.9062 628.029 11.98 628.433C12.0538 628.837 12.2065 629.222 12.4292 629.567C12.6519 629.911 12.9403 630.209 13.2779 630.442C13.6156 630.675 13.9959 630.84 14.3971 630.926C14.7984 631.012 15.2127 631.019 15.6164 630.945C16.0201 630.871 16.4053 630.719 16.75 630.496L17.2958 630.138C17.8417 629.783 18.4708 629.371 19.1542 628.954C21.6125 631.463 24.6625 633.4 27.8292 634.858C35.25 638.275 44.0375 639.458 50 639.458C55.9625 639.458 64.75 638.271 72.1708 634.858C75.3375 633.4 78.3917 631.463 80.8458 628.954C81.5292 629.371 82.1583 629.783 82.7042 630.138L83.25 630.496C83.9462 630.946 84.7925 631.1 85.6029 630.926C86.4132 630.752 87.1211 630.263 87.5708 629.567C88.0206 628.87 88.1754 628.024 88.0011 627.214C87.8269 626.404 87.3379 625.696 86.6417 625.246L86.1708 624.937C85.7125 624.637 85.1417 624.263 84.4917 623.858C85.3042 622.208 85.8875 620.388 86.175 618.392C88.0583 619.108 89.4875 619.767 89.975 620.079C90.6709 620.504 91.5051 620.64 92.2997 620.458C93.0943 620.276 93.7864 619.791 94.2284 619.106C94.6703 618.421 94.8271 617.59 94.6654 616.791C94.5036 615.992 94.0361 615.288 93.3625 614.829C92.05 613.979 89.1958 612.796 86.4417 611.838C86.5032 609.874 86.442 607.91 86.2583 605.954C86.0258 603.487 85.3481 601.083 84.2583 598.858C84.8708 598.054 85.2333 597.167 85.4667 596.496C86.0464 594.642 86.3524 592.713 86.375 590.771V582.95C86.375 578.783 84.9083 575.592 82.4625 573.483C80.1083 571.454 77.1625 570.708 74.6042 570.708C72.9042 570.708 71.1458 571.363 69.725 572C68.1909 572.721 66.6919 573.515 65.2333 574.379L64.3458 574.892L64.3375 574.896C63.2375 575.533 62.2625 576.104 61.3917 576.55C60.9777 576.768 60.552 576.962 60.1167 577.133C60.0319 577.165 59.9457 577.193 59.8583 577.217C58.9544 577.207 58.0522 577.134 57.1583 577L56.4833 576.917C54.3322 576.658 52.1664 576.541 50 576.567C46.7833 576.567 44.9583 576.738 43.5167 576.917L42.8417 577C41.9477 577.134 41.0456 577.207 40.1417 577.217C40.0543 577.193 39.9681 577.165 39.8833 577.133C39.4475 576.964 39.0218 576.769 38.6083 576.55C37.6136 576.022 36.6314 575.47 35.6625 574.896L34.7667 574.379C33.3093 573.517 31.8118 572.724 30.2792 572.004C28.8583 571.363 27.0958 570.708 25.3958 570.708ZM25.675 626.392C27.0667 627.442 28.6708 628.367 30.4417 629.183C36.8167 632.117 44.6583 633.208 50 633.208C55.3417 633.208 63.1792 632.117 69.5583 629.183C71.3292 628.367 72.9333 627.442 74.325 626.392C73.5533 626.258 72.8598 625.839 72.382 625.219C71.9042 624.598 71.6769 623.821 71.745 623.041C71.8131 622.26 72.1718 621.534 72.7499 621.006C73.328 620.477 74.0835 620.185 74.8667 620.188C76.2292 620.188 77.625 620.529 78.9167 621C79.5973 619.571 79.9976 618.025 80.0958 616.446C79.2655 616.217 78.4138 616.075 77.5542 616.021C76.7254 616.021 75.9305 615.692 75.3445 615.106C74.7584 614.519 74.4292 613.725 74.4292 612.896C74.4292 612.067 74.7584 611.272 75.3445 610.686C75.9305 610.1 76.7254 609.771 77.5542 609.771C78.3667 609.771 79.2833 609.896 80.2083 610.071C80.2083 608.921 80.1708 607.792 80.0458 606.633C79.7542 603.946 78.9917 601.558 77.1958 599.438C76.4719 598.594 75.651 597.839 74.75 597.188C74.0814 596.697 73.6351 595.961 73.5093 595.141C73.3835 594.321 73.5885 593.485 74.0792 592.817C74.5698 592.148 75.3059 591.702 76.1256 591.576C76.9453 591.45 77.7814 591.655 78.45 592.146C78.95 592.513 79.4167 592.888 79.8583 593.271C80.0417 592.321 80.125 591.325 80.125 590.754V582.95C80.125 580.342 79.2667 578.979 78.3833 578.221C77.4167 577.388 76.0417 576.958 74.6042 576.958C74.3125 576.958 73.5792 577.121 72.2958 577.7C71.1 578.242 69.7625 578.983 68.35 579.796C68.0817 579.951 67.8137 580.107 67.5458 580.263C66.4292 580.908 65.275 581.579 64.2542 582.104C63.6083 582.438 62.9375 582.754 62.2917 582.996C61.5533 583.289 60.7691 583.45 59.975 583.471C58.7435 583.466 57.5139 583.373 56.2958 583.192L55.725 583.121C53.8255 582.893 51.9129 582.792 50 582.817C47.05 582.817 45.4792 582.971 44.2792 583.121L43.7042 583.192C42.6625 583.329 41.575 583.467 40.025 583.467C39.1375 583.467 38.3083 583.217 37.7125 582.996C37.0398 582.738 36.3831 582.44 35.7458 582.104C34.725 581.579 33.5708 580.908 32.4542 580.263L31.65 579.796C30.2375 578.983 28.9 578.238 27.7042 577.7C26.4208 577.117 25.6875 576.958 25.3958 576.958C23.9625 576.958 22.5833 577.388 21.6167 578.221C20.7333 578.979 19.875 580.346 19.875 582.95V590.75C19.875 591.321 19.9583 592.317 20.1417 593.267C20.5875 592.883 21.0583 592.508 21.55 592.142C21.881 591.899 22.2567 591.723 22.6555 591.626C23.0543 591.528 23.4685 591.51 23.8743 591.572C24.2802 591.634 24.6698 591.776 25.021 591.989C25.3721 592.202 25.6779 592.481 25.9208 592.813C26.1638 593.144 26.3391 593.519 26.4369 593.918C26.5347 594.317 26.5529 594.731 26.4906 595.137C26.4283 595.543 26.2867 595.932 26.0738 596.283C25.861 596.635 25.581 596.94 25.25 597.183C24.25 597.917 23.4458 598.671 22.8042 599.433C21.0125 601.558 20.2458 603.942 19.9542 606.629C19.8292 607.788 19.7875 608.921 19.7875 610.067C20.7167 609.888 21.6333 609.767 22.4458 609.767C23.2746 609.767 24.0695 610.096 24.6555 610.682C25.2416 611.268 25.5708 612.063 25.5708 612.892C25.5708 613.72 25.2416 614.515 24.6555 615.101C24.0695 615.687 23.2746 616.017 22.4458 616.017C22.0042 616.017 21.1458 616.142 19.9042 616.442C20.0167 618.1 20.425 619.613 21.0833 620.996C22.3762 620.493 23.7465 620.218 25.1333 620.183C25.9165 620.181 26.672 620.473 27.2501 621.002C27.8282 621.53 28.1868 622.256 28.255 623.037C28.3231 623.817 28.0957 624.594 27.6179 625.215C27.1401 625.835 26.4467 626.258 25.675 626.392Z" fill="#9E9E9E"/>
<path d="M165.833 348.333C169.844 348.319 173.764 347.147 177.125 344.958L178.333 344.167C179.004 343.712 179.632 343.196 180.208 342.625L181.083 341.792C181.817 341.044 182.486 340.235 183.083 339.375L183.333 339.042C184.008 338.046 184.58 336.985 185.042 335.875C185.192 335.566 185.317 335.245 185.417 334.917C185.763 334.065 186.041 333.187 186.25 332.292L186.5 331.25C186.658 330.007 186.714 328.752 186.667 327.5V298.333L174.167 310.833H157.5L145 298.333V327.5C145 333.025 147.195 338.324 151.102 342.231C155.009 346.138 160.308 348.333 165.833 348.333ZM174.167 319.167C174.991 319.167 175.796 319.411 176.482 319.869C177.167 320.327 177.701 320.977 178.016 321.739C178.332 322.5 178.414 323.338 178.253 324.146C178.093 324.954 177.696 325.697 177.113 326.28C176.53 326.862 175.788 327.259 174.98 327.42C174.171 327.581 173.334 327.498 172.572 327.183C171.811 326.867 171.16 326.333 170.702 325.648C170.244 324.963 170 324.157 170 323.333C170 322.228 170.439 321.168 171.22 320.387C172.002 319.606 173.062 319.167 174.167 319.167ZM157.5 319.167C158.324 319.167 159.13 319.411 159.815 319.869C160.5 320.327 161.034 320.977 161.349 321.739C161.665 322.5 161.747 323.338 161.587 324.146C161.426 324.954 161.029 325.697 160.446 326.28C159.864 326.862 159.121 327.259 158.313 327.42C157.505 327.581 156.667 327.498 155.905 327.183C155.144 326.867 154.493 326.333 154.036 325.648C153.578 324.963 153.333 324.157 153.333 323.333C153.333 322.228 153.772 321.168 154.554 320.387C155.335 319.606 156.395 319.167 157.5 319.167Z" fill="#9E9E9E"/>
<path d="M140.833 381.667V360.833H128.333V381.667H115.833V339.583C113.714 339.276 111.689 338.503 109.903 337.322C108.116 336.141 106.613 334.58 105.5 332.75C104.155 330.535 103.408 328.008 103.333 325.417C103.409 323.344 103.908 321.308 104.799 319.435C105.691 317.562 106.956 315.891 108.517 314.525C110.078 313.159 111.902 312.127 113.877 311.492C115.852 310.857 117.935 310.633 120 310.833C121.112 310.9 122.225 310.73 123.266 310.335C124.308 309.94 125.253 309.329 126.041 308.541C126.829 307.753 127.44 306.808 127.835 305.766C128.23 304.725 128.4 303.612 128.333 302.5C128.333 301.395 128.772 300.335 129.554 299.554C130.335 298.772 131.395 298.333 132.5 298.333C133.605 298.333 134.665 298.772 135.446 299.554C136.228 300.335 136.667 301.395 136.667 302.5C136.73 304.706 136.342 306.901 135.527 308.952C134.712 311.003 133.487 312.866 131.926 314.426C130.366 315.986 128.503 317.212 126.452 318.027C124.402 318.842 122.206 319.23 120 319.167C112.458 319.167 111.667 324 111.667 325.458C111.667 326.917 112.417 331.667 120 331.667H141.208C141.82 335.256 143.209 338.669 145.278 341.666C147.346 344.662 150.044 347.171 153.183 349.016C156.322 350.862 159.827 351.999 163.451 352.349C167.076 352.699 170.733 352.253 174.167 351.042V381.667H161.667V360.833H153.333V381.667H140.833Z" fill="#9E9E9E"/>
<path d="M362.196 188.497C361.485 186.404 360.136 184.587 358.339 183.301C356.541 182.015 354.385 181.325 352.175 181.328H343.688V156.209L340.121 156.719C332.029 157.875 325.726 161.975 321.389 168.906C318.262 173.903 316.808 179.414 316.133 183.537C311.476 187.12 307.424 192.054 304.075 198.224C301.253 203.423 298.917 209.516 297.131 216.335C294.114 227.857 293.706 237.413 293.69 237.815L293.688 248.875H299.938V238.009C300.016 236.401 301.984 201.221 320.842 187.826L321.948 187.04L322.129 185.696C323.07 178.738 326.32 167.246 337.438 163.713V187.578H352.175C353.079 187.575 353.961 187.856 354.696 188.381C355.432 188.905 355.985 189.648 356.277 190.503C358.768 197.857 363.05 207.061 369.722 211.386L367.715 218.911C367.017 221.594 365.428 223.961 363.209 225.624C360.99 227.287 358.272 228.148 355.5 228.065C349.901 227.897 344.073 228.628 338.178 230.235L335.875 230.863V248.875H342.125V235.685C346.444 234.665 350.876 234.203 355.312 234.312C359.491 234.427 363.585 233.128 366.932 230.625C370.279 228.122 372.683 224.561 373.754 220.521L377.091 208.005L374.605 206.94C369.957 204.948 365.55 198.398 362.196 188.497Z" fill="#9E9E9E"/>
<path d="M1338 16.6667C1330.88 16.6667 1326.54 18.0417 1324.04 19.2084C1320.83 17.625 1317.17 16.6667 1313 16.6667C1308.83 16.6667 1305.17 17.625 1301.96 19.2084C1299.46 18.0417 1295.13 16.6667 1288 16.6667C1275.5 16.6667 1267.17 50 1267.17 58.3334C1267.17 61.7917 1272.67 64.9584 1280.25 66.25C1282.92 75.5834 1295.5 82.7084 1310.92 83.3334V65.5C1308.46 63.9584 1304.67 61.1667 1304.67 58.3334C1304.67 54.1667 1313 54.1667 1313 54.1667C1313 54.1667 1321.33 54.1667 1321.33 58.3334C1321.33 61.1667 1317.54 63.9584 1315.08 65.5V83.3334C1330.5 82.7084 1343.08 75.5834 1345.75 66.25C1353.33 64.9584 1358.83 61.7917 1358.83 58.3334C1358.83 50 1350.5 16.6667 1338 16.6667ZM1280.29 57.7917C1278.21 57.2917 1276.58 56.7084 1275.5 56.25C1276.54 44.7084 1284.67 26.6667 1288.21 25C1290.46 25 1292.17 25.25 1293.71 25.4584C1284.96 35.0834 1281.5 50.1667 1280.29 57.7917ZM1300.5 50C1299.4 50 1298.34 49.561 1297.55 48.7796C1296.77 47.9982 1296.33 46.9384 1296.33 45.8334C1296.33 43.5834 1298.21 41.6667 1300.5 41.6667C1301.61 41.6667 1302.66 42.1057 1303.45 42.8871C1304.23 43.6685 1304.67 44.7283 1304.67 45.8334C1304.67 48.1667 1302.79 50 1300.5 50ZM1325.5 50C1324.4 50 1323.34 49.561 1322.55 48.7796C1321.77 47.9982 1321.33 46.9384 1321.33 45.8334C1321.33 43.5834 1323.21 41.6667 1325.5 41.6667C1326.61 41.6667 1327.66 42.1057 1328.45 42.8871C1329.23 43.6685 1329.67 44.7283 1329.67 45.8334C1329.67 48.1667 1327.79 50 1325.5 50ZM1345.71 57.7917C1344.5 50.1667 1341.04 35.0834 1332.29 25.4584C1333.83 25.25 1335.54 25 1337.79 25C1341.33 26.6667 1349.46 44.7084 1350.5 56.25C1349.46 56.7084 1347.83 57.2917 1345.71 57.7917Z" fill="#9E9E9E"/>
<path d="M1179.5 323H1187.83L1193.13 317.708C1195.04 315.793 1197.63 314.701 1200.33 314.667H1210.75C1211.33 312.328 1212.67 310.246 1214.55 308.741C1216.43 307.235 1218.76 306.389 1221.17 306.333V332.833C1220.95 337.041 1219.29 341.046 1216.46 344.167C1211.8 348.647 1205.7 351.334 1199.25 351.75L1184.88 346C1183.19 345.323 1181.67 344.286 1180.42 342.962C1179.18 341.638 1178.24 340.058 1177.67 338.333L1175.33 331.958C1175.27 331.53 1175.27 331.095 1175.33 330.667V327.167C1175.33 326.062 1175.77 325.002 1176.55 324.22C1177.34 323.439 1178.4 323 1179.5 323ZM1200.33 331.333C1201.16 331.333 1201.96 331.089 1202.65 330.631C1203.33 330.173 1203.87 329.523 1204.18 328.761C1204.5 328 1204.58 327.162 1204.42 326.354C1204.26 325.546 1203.86 324.803 1203.28 324.22C1202.7 323.638 1201.95 323.241 1201.15 323.08C1200.34 322.919 1199.5 323.002 1198.74 323.317C1197.98 323.633 1197.33 324.167 1196.87 324.852C1196.41 325.537 1196.17 326.343 1196.17 327.167C1196.17 328.272 1196.61 329.332 1197.39 330.113C1198.17 330.894 1199.23 331.333 1200.33 331.333Z" fill="#9E9E9E"/>
<path d="M1219.58 346.917C1222.49 343.733 1224.39 339.761 1225.04 335.5H1242C1243.11 335.574 1244.23 335.409 1245.27 335.016C1246.32 334.623 1247.27 334.012 1248.06 333.223C1248.85 332.434 1249.46 331.485 1249.85 330.441C1250.24 329.396 1250.41 328.28 1250.33 327.167C1250.33 326.062 1250.77 325.002 1251.55 324.22C1252.34 323.439 1253.4 323 1254.5 323C1255.61 323 1256.66 323.439 1257.45 324.22C1258.23 325.002 1258.67 326.062 1258.67 327.167C1258.62 330.058 1257.94 332.904 1256.67 335.5C1255.26 338.225 1253.05 340.452 1250.33 341.875V389.667H1237.83V368.833H1212.83V389.667H1200.33V355.792C1207.6 355.219 1214.43 352.072 1219.58 346.917Z" fill="#9E9E9E"/>
<path d="M998.184 180.51L1009.66 163.929C1010.51 162.703 1011.64 161.697 1012.96 160.995C1014.28 160.293 1015.74 159.915 1017.23 159.892L1039.02 159.579H1039.06C1050.31 159.579 1058.94 161.46 1064.49 170.64C1069.67 179.186 1071.88 193.742 1071.88 219.312V222.438H1064.73L1069.33 245.875H1062.96L1058.37 222.438H1056.25C1051.15 222.483 1046.23 220.519 1042.56 216.97C1039.24 213.797 1036.85 209.456 1035.64 204.417L1035.63 204.371L1030.27 178.688L1036.66 178.688L1041.73 203.002C1043.28 209.384 1047.9 216.188 1056.25 216.188H1065.61C1065.44 194.065 1063.43 180.949 1059.15 173.876C1055.55 167.939 1050.3 165.831 1039.08 165.828L1017.32 166.141C1016.83 166.148 1016.34 166.274 1015.9 166.508C1015.46 166.742 1015.08 167.078 1014.8 167.487L1001.82 186.24L984.375 189.147V192.46L987.284 207.971C988.142 212.55 989.609 214.856 995.627 215.579L1020.3 219.799L1020.46 245.875L1014.21 245.875L1014.08 225.076L994.802 221.775C990.434 221.238 987.212 219.83 984.953 217.473C983.021 215.458 981.846 212.884 981.14 209.123L978.125 193.04V183.853L998.184 180.51Z" fill="#9E9E9E"/>
<path d="M220.833 507C225.436 507 229.167 503.269 229.167 498.667C229.167 494.064 225.436 490.333 220.833 490.333C216.231 490.333 212.5 494.064 212.5 498.667C212.5 503.269 216.231 507 220.833 507Z" stroke="#9E9E9E" stroke-width="8.33333" stroke-linecap="round" stroke-linejoin="round"/>
<path d="M250 523.667C254.602 523.667 258.333 519.936 258.333 515.333C258.333 510.731 254.602 507 250 507C245.398 507 241.667 510.731 241.667 515.333C241.667 519.936 245.398 523.667 250 523.667Z" stroke="#9E9E9E" stroke-width="8.33333" stroke-linecap="round" stroke-linejoin="round"/>
<path d="M258.333 557C262.936 557 266.667 553.269 266.667 548.667C266.667 544.064 262.936 540.333 258.333 540.333C253.731 540.333 250 544.064 250 548.667C250 553.269 253.731 557 258.333 557Z" stroke="#9E9E9E" stroke-width="8.33333" stroke-linecap="round" stroke-linejoin="round"/>
<path d="M212.5 523.667C215.236 523.667 217.945 524.206 220.473 525.252C223 526.299 225.297 527.834 227.231 529.769C229.166 531.703 230.7 534 231.747 536.527C232.794 539.055 233.333 541.764 233.333 544.5V559.083C233.332 562.569 232.083 565.938 229.812 568.582C227.541 571.225 224.398 572.968 220.952 573.495C217.507 574.021 213.987 573.296 211.03 571.451C208.073 569.606 205.875 566.763 204.833 563.437C203.056 557.701 199.306 553.944 193.583 552.167C190.259 551.125 187.417 548.929 185.572 545.974C183.727 543.019 183.001 539.502 183.525 536.058C184.048 532.614 185.787 529.471 188.427 527.198C191.067 524.926 194.433 523.673 197.917 523.667H212.5Z" stroke="#9E9E9E" stroke-width="8.33333" stroke-linecap="round" stroke-linejoin="round"/>
<path d="M1129.17 515C1124.56 515 1120.83 511.269 1120.83 506.667C1120.83 502.064 1124.56 498.333 1129.17 498.333C1133.77 498.333 1137.5 502.064 1137.5 506.667C1137.5 511.269 1133.77 515 1129.17 515Z" stroke="#9E9E9E" stroke-width="8.33333" stroke-linecap="round" stroke-linejoin="round"/>
<path d="M1100 531.667C1095.4 531.667 1091.67 527.936 1091.67 523.333C1091.67 518.731 1095.4 515 1100 515C1104.6 515 1108.33 518.731 1108.33 523.333C1108.33 527.936 1104.6 531.667 1100 531.667Z" stroke="#9E9E9E" stroke-width="8.33333" stroke-linecap="round" stroke-linejoin="round"/>
<path d="M1091.67 565C1087.06 565 1083.33 561.269 1083.33 556.667C1083.33 552.064 1087.06 548.333 1091.67 548.333C1096.27 548.333 1100 552.064 1100 556.667C1100 561.269 1096.27 565 1091.67 565Z" stroke="#9E9E9E" stroke-width="8.33333" stroke-linecap="round" stroke-linejoin="round"/>
<path d="M1137.5 531.667C1134.76 531.667 1132.05 532.206 1129.53 533.252C1127 534.299 1124.7 535.834 1122.77 537.769C1120.83 539.703 1119.3 542 1118.25 544.527C1117.21 547.055 1116.67 549.764 1116.67 552.5V567.083C1116.67 570.569 1117.92 573.938 1120.19 576.582C1122.46 579.225 1125.6 580.968 1129.05 581.495C1132.49 582.021 1136.01 581.296 1138.97 579.451C1141.93 577.606 1144.12 574.763 1145.17 571.437C1146.94 565.701 1150.69 561.944 1156.42 560.167C1159.74 559.125 1162.58 556.929 1164.43 553.974C1166.27 551.019 1167 547.502 1166.48 544.058C1165.95 540.614 1164.21 537.471 1161.57 535.198C1158.93 532.926 1155.57 531.673 1152.08 531.667H1137.5Z" stroke="#9E9E9E" stroke-width="8.33333" stroke-linecap="round" stroke-linejoin="round"/>
</svg>
