<svg width="216" height="41" viewBox="0 0 216 41" fill="none" xmlns="http://www.w3.org/2000/svg">
<path d="M199.75 7.5C201.131 7.5 202.25 6.38071 202.25 5C202.25 3.61929 201.131 2.5 199.75 2.5C198.369 2.5 197.25 3.61929 197.25 5C197.25 6.38071 198.369 7.5 199.75 7.5Z" stroke="#DA5D35" stroke-width="3" stroke-linecap="round" stroke-linejoin="round"/>
<path d="M208.5 12.5C209.881 12.5 211 11.3807 211 10C211 8.61929 209.881 7.5 208.5 7.5C207.119 7.5 206 8.61929 206 10C206 11.3807 207.119 12.5 208.5 12.5Z" stroke="#DA5D35" stroke-width="3" stroke-linecap="round" stroke-linejoin="round"/>
<path d="M211 22.5C212.381 22.5 213.5 21.3807 213.5 20C213.5 18.6193 212.381 17.5 211 17.5C209.619 17.5 208.5 18.6193 208.5 20C208.5 21.3807 209.619 22.5 211 22.5Z" stroke="#DA5D35" stroke-width="3" stroke-linecap="round" stroke-linejoin="round"/>
<path d="M197.25 12.5C198.071 12.5 198.884 12.6617 199.642 12.9758C200.4 13.2898 201.089 13.7502 201.669 14.3306C202.25 14.9109 202.71 15.5999 203.024 16.3582C203.338 17.1165 203.5 17.9292 203.5 18.75V23.125C203.5 24.1706 203.125 25.1815 202.444 25.9746C201.762 26.7676 200.819 27.2905 199.786 27.4484C198.752 27.6063 197.696 27.3888 196.809 26.8354C195.922 26.2819 195.263 25.429 194.95 24.4313C194.417 22.7104 193.292 21.5833 191.575 21.05C190.578 20.7376 189.725 20.0786 189.172 19.1922C188.618 18.3058 188.4 17.2505 188.557 16.2173C188.715 15.1842 189.236 14.2414 190.028 13.5595C190.82 12.8777 191.83 12.5018 192.875 12.5H197.25Z" stroke="#DA5D35" stroke-width="3" stroke-linecap="round" stroke-linejoin="round"/>
<path d="M23.8883 29.552C23.9123 29.696 23.9243 29.84 23.9243 29.984C23.9483 30.104 23.9603 30.248 23.9603 30.416C23.9603 30.704 23.8763 30.968 23.7083 31.208C23.6363 31.328 23.5403 31.448 23.4203 31.568C23.3003 31.664 23.1563 31.748 22.9883 31.82C22.3883 32.156 21.7523 32.276 21.0803 32.18C20.7443 32.084 20.4443 31.928 20.1803 31.712C20.1323 31.664 20.0963 31.64 20.0723 31.64C20.0483 31.616 20.0243 31.58 20.0003 31.532C19.9763 31.508 19.9523 31.484 19.9283 31.46C19.9043 31.412 19.8683 31.376 19.8203 31.352C19.7003 31.232 19.6043 31.124 19.5323 31.028C19.4603 30.908 19.3883 30.788 19.3163 30.668C19.2683 30.548 19.2083 30.44 19.1363 30.344C19.0883 30.224 19.0283 30.104 18.9563 29.984C18.9083 29.888 18.8603 29.804 18.8123 29.732C18.7643 29.636 18.7283 29.54 18.7043 29.444C18.6083 29.228 18.5483 29.036 18.5243 28.868L17.7683 27.104C16.1123 27.104 14.4563 27.116 12.8003 27.14C11.1683 27.14 9.52433 27.128 7.86833 27.104L7.11233 28.868C7.06433 28.964 7.02833 29.06 7.00433 29.156C7.00433 29.252 6.98033 29.348 6.93233 29.444C6.88433 29.54 6.83633 29.636 6.78833 29.732C6.76433 29.804 6.72833 29.888 6.68033 29.984C6.60833 30.104 6.53633 30.224 6.46433 30.344C6.41633 30.44 6.35633 30.548 6.28433 30.668C6.23633 30.788 6.17633 30.908 6.10433 31.028C6.03233 31.124 5.93633 31.232 5.81633 31.352C5.76833 31.376 5.73233 31.412 5.70833 31.46C5.68433 31.484 5.66033 31.508 5.63633 31.532C5.61233 31.58 5.58833 31.616 5.56433 31.64C5.54033 31.64 5.50433 31.664 5.45633 31.712C5.19233 31.928 4.89233 32.084 4.55633 32.18C3.88433 32.276 3.24833 32.156 2.64833 31.82C2.48033 31.748 2.33633 31.664 2.21633 31.568C2.09633 31.448 2.00033 31.328 1.92833 31.208C1.76033 30.968 1.67633 30.704 1.67633 30.416C1.67633 30.248 1.67633 30.104 1.67633 29.984C1.70033 29.84 1.72433 29.696 1.74833 29.552C1.79633 29.336 1.85633 29.12 1.92833 28.904C2.00033 28.688 2.03633 28.58 2.03633 28.58L9.52433 10.148L9.74033 9.572C9.78833 9.428 9.84833 9.296 9.92033 9.176C9.99233 9.056 10.0523 8.912 10.1003 8.744C10.2203 8.432 10.3523 8.156 10.4963 7.916C10.5683 7.772 10.6523 7.64 10.7483 7.52C10.8443 7.4 10.9403 7.28 11.0363 7.16C11.1803 6.968 11.3843 6.812 11.6483 6.692C11.9843 6.572 12.3683 6.512 12.8003 6.512C13.2563 6.512 13.6523 6.572 13.9883 6.692C14.2523 6.812 14.4563 6.968 14.6003 7.16C14.7683 7.376 14.9483 7.628 15.1403 7.916C15.2843 8.156 15.4163 8.432 15.5363 8.744C15.5843 8.912 15.6443 9.056 15.7163 9.176C15.7883 9.296 15.8483 9.428 15.8963 9.572L16.1123 10.148L23.6003 28.58C23.6003 28.58 23.6363 28.688 23.7083 28.904C23.7803 29.12 23.8403 29.336 23.8883 29.552ZM15.3563 20.732C15.0443 20.036 14.7203 19.316 14.3843 18.572C14.0723 17.828 13.7363 17.072 13.3763 16.304C13.2803 16.088 13.1843 15.872 13.0883 15.656C12.9923 15.416 12.8963 15.188 12.8003 14.972C12.7283 15.188 12.6443 15.416 12.5483 15.656C12.4523 15.872 12.3563 16.088 12.2603 16.304C11.9003 17.072 11.5523 17.828 11.2163 18.572C10.9043 19.316 10.5923 20.036 10.2803 20.732L9.63233 22.316H16.0043L15.3563 20.732ZM37.3771 6.836C37.8331 6.716 38.2291 6.704 38.5651 6.8C38.9251 6.872 39.2251 7.028 39.4651 7.268C39.7291 7.508 39.9211 7.808 40.0411 8.168C40.1851 8.528 40.2571 8.924 40.2571 9.356C40.2811 10.556 40.2811 11.492 40.2571 12.164C40.2571 12.836 40.2571 13.424 40.2571 13.928V24.98C40.2571 26.276 40.2571 27.356 40.2571 28.22C40.2571 29.084 40.2091 29.792 40.1131 30.344C40.0411 30.872 39.8971 31.268 39.6811 31.532C39.4891 31.796 39.1891 31.976 38.7811 32.072C38.3731 32.192 37.8331 32.252 37.1611 32.252C36.5131 32.252 35.6971 32.252 34.7131 32.252C32.1211 32.252 30.0691 31.64 28.5571 30.416C27.0691 29.192 26.2771 27.248 26.1811 24.584C26.1331 23.432 26.2771 22.376 26.6131 21.416C26.9491 20.456 27.4411 19.64 28.0891 18.968C28.7611 18.272 29.5771 17.744 30.5371 17.384C31.5211 17 32.6371 16.82 33.8851 16.844H35.8651V10.4C35.8651 10.016 35.8651 9.644 35.8651 9.284C35.8651 8.9 35.9011 8.552 35.9731 8.24C36.0451 7.904 36.1891 7.616 36.4051 7.376C36.6211 7.136 36.9451 6.956 37.3771 6.836ZM31.1131 26.816C31.6171 27.512 32.5291 27.896 33.8491 27.968C34.1131 27.992 34.3651 28.004 34.6051 28.004C34.8451 27.98 35.0611 27.944 35.2531 27.896C35.4691 27.872 35.6731 27.836 35.8651 27.788V21.128C35.0251 20.984 34.2571 20.9 33.5611 20.876C32.8891 20.828 32.2171 21.068 31.5451 21.596C31.1851 21.884 30.9091 22.256 30.7171 22.712C30.5251 23.144 30.4171 23.612 30.3931 24.116C30.3691 24.596 30.4171 25.076 30.5371 25.556C30.6571 26.036 30.8491 26.456 31.1131 26.816ZM47.8047 15.728C48.5967 15.344 49.4247 15.068 50.2887 14.9C51.1527 14.732 52.0047 14.696 52.8447 14.792C53.7087 14.888 54.5367 15.116 55.3287 15.476C56.1447 15.836 56.8887 16.34 57.5607 16.988C58.1127 17.54 58.5927 18.212 59.0007 19.004C59.4087 19.772 59.7087 20.528 59.9007 21.272C60.3087 22.592 60.3687 23.924 60.0807 25.268C59.7927 26.612 59.3007 27.86 58.6047 29.012C58.2687 29.54 57.8487 30.02 57.3447 30.452C56.8647 30.86 56.3487 31.196 55.7967 31.46C55.0767 31.796 54.2967 32.024 53.4567 32.144C52.6167 32.288 51.8007 32.324 51.0087 32.252C49.5687 32.18 48.2967 31.82 47.1927 31.172C46.1127 30.524 45.2367 29.696 44.5647 28.688C43.9167 27.68 43.4847 26.54 43.2687 25.268C43.0767 23.972 43.1607 22.652 43.5207 21.308C43.9047 19.868 44.4567 18.704 45.1767 17.816C45.9207 16.904 46.7967 16.208 47.8047 15.728ZM48.8847 20.552C48.5247 20.888 48.2487 21.308 48.0567 21.812C47.8647 22.316 47.7447 22.844 47.6967 23.396C47.6487 23.924 47.6847 24.464 47.8047 25.016C47.9487 25.544 48.1647 26.024 48.4527 26.456C48.6927 26.816 49.1247 27.116 49.7487 27.356C50.3727 27.596 51.0207 27.74 51.6927 27.788C52.4607 27.836 53.1327 27.632 53.7087 27.176C54.2847 26.696 54.7167 26.108 55.0047 25.412C55.3167 24.716 55.4607 23.96 55.4367 23.144C55.4127 22.328 55.1967 21.584 54.7887 20.912C54.5007 20.432 54.0927 20.084 53.5647 19.868C53.0607 19.628 52.5207 19.508 51.9447 19.508C51.3927 19.484 50.8407 19.568 50.2887 19.76C49.7367 19.928 49.2687 20.192 48.8847 20.552ZM73.2095 15.8C73.9055 16.088 74.5415 16.508 75.1175 17.06C75.6935 17.588 76.1855 18.2 76.5935 18.896C77.0255 19.592 77.3495 20.348 77.5655 21.164C77.8055 21.956 77.9255 22.76 77.9255 23.576C77.9495 24.8 77.6615 25.952 77.0615 27.032C76.4855 28.112 75.5375 28.94 74.2175 29.516C73.2095 29.924 72.1655 30.236 71.0855 30.452C70.0295 30.644 68.9255 30.776 67.7735 30.848V37.436C67.7735 37.58 67.7495 37.712 67.7015 37.832C67.6775 37.952 67.6655 38.072 67.6655 38.192C67.6175 38.432 67.5575 38.648 67.4855 38.84C67.4375 39.032 67.3655 39.236 67.2695 39.452C67.1735 39.596 67.0775 39.728 66.9815 39.848C66.8855 39.968 66.7775 40.088 66.6575 40.208C66.0815 40.496 65.4815 40.556 64.8575 40.388C64.4735 40.364 64.1615 40.244 63.9215 40.028C63.7055 39.812 63.5495 39.584 63.4535 39.344C63.3575 39.104 63.2735 38.828 63.2015 38.516C63.1775 38.396 63.1535 38.276 63.1295 38.156C63.1295 38.06 63.1295 37.952 63.1295 37.832V17.78C63.1295 17.636 63.1295 17.492 63.1295 17.348C63.1535 17.18 63.1775 17.012 63.2015 16.844C63.2255 16.556 63.2975 16.268 63.4175 15.98C63.6335 15.38 64.0775 14.972 64.7495 14.756C65.4215 14.54 66.1775 14.444 67.0175 14.468C67.5935 14.492 68.1815 14.552 68.7815 14.648C69.4055 14.744 69.9935 14.864 70.5455 15.008C71.1215 15.128 71.6375 15.26 72.0935 15.404C72.5495 15.548 72.9215 15.68 73.2095 15.8ZM73.2815 23.576C73.3775 22.904 73.2935 22.34 73.0295 21.884C72.7895 21.404 72.4415 21.02 71.9855 20.732C71.5295 20.42 71.0015 20.18 70.4015 20.012C69.8255 19.844 69.2495 19.724 68.6735 19.652C68.6015 19.628 68.4815 19.616 68.3135 19.616C68.1695 19.616 68.0015 19.616 67.8095 19.616C67.8095 20.384 67.8095 21.128 67.8095 21.848C67.8335 22.544 67.8335 23.3 67.8095 24.116V26.528C68.3615 26.504 68.9375 26.444 69.5375 26.348C70.1615 26.252 70.7375 26.096 71.2655 25.88C71.7935 25.664 72.2375 25.376 72.5975 25.016C72.9815 24.656 73.2095 24.176 73.2815 23.576ZM94.6733 16.124C94.8653 16.58 94.8773 17.084 94.7093 17.636C94.5653 18.188 94.2893 18.548 93.8813 18.716C93.6653 18.812 93.3773 18.896 93.0173 18.968C92.6573 19.016 92.2613 19.064 91.8293 19.112C91.4213 19.16 91.0133 19.196 90.6053 19.22C90.1973 19.244 89.8493 19.256 89.5613 19.256C89.5853 19.976 89.6093 20.72 89.6333 21.488C89.6573 22.232 89.6813 22.964 89.7053 23.684C89.7293 24.404 89.7413 25.1 89.7413 25.772C89.7413 26.42 89.7293 27.008 89.7053 27.536C89.7053 27.896 89.7053 28.316 89.7053 28.796C89.7053 29.252 89.6693 29.696 89.5973 30.128C89.5493 30.56 89.4653 30.944 89.3453 31.28C89.2253 31.592 89.0453 31.796 88.8053 31.892C88.0613 32.204 87.3773 32.288 86.7533 32.144C86.1533 32.024 85.7213 31.772 85.4573 31.388C85.2653 31.076 85.1213 30.716 85.0253 30.308C84.9293 29.876 84.8573 29.444 84.8093 29.012C84.7853 28.556 84.7733 28.124 84.7733 27.716C84.7973 27.284 84.8093 26.912 84.8093 26.6C84.8333 25.592 84.8453 24.452 84.8453 23.18C84.8693 21.884 84.8813 20.588 84.8813 19.292H84.3413C84.0533 19.292 83.6813 19.292 83.2253 19.292C82.7933 19.268 82.3493 19.232 81.8933 19.184C81.4613 19.112 81.0533 19.028 80.6693 18.932C80.2853 18.812 80.0093 18.644 79.8413 18.428C79.5773 18.116 79.4093 17.78 79.3373 17.42C79.2893 17.06 79.3133 16.724 79.4093 16.412C79.5293 16.076 79.7093 15.788 79.9493 15.548C80.1893 15.284 80.4653 15.116 80.7773 15.044C81.2093 14.924 81.8213 14.864 82.6133 14.864C83.4053 14.84 84.1493 14.84 84.8453 14.864C84.8213 14.624 84.8093 14.396 84.8093 14.18C84.8093 13.94 84.7973 13.712 84.7733 13.496C84.7493 13.208 84.7373 12.848 84.7373 12.416C84.7373 11.96 84.7613 11.516 84.8093 11.084C84.8813 10.628 84.9893 10.208 85.1333 9.824C85.2773 9.416 85.4813 9.104 85.7453 8.888C86.1053 8.6 86.4653 8.444 86.8253 8.42C87.2093 8.372 87.5573 8.42 87.8693 8.564C88.2053 8.708 88.4813 8.924 88.6973 9.212C88.9373 9.476 89.1053 9.776 89.2013 10.112C89.2733 10.4 89.3333 10.748 89.3813 11.156C89.4293 11.54 89.4533 11.948 89.4533 12.38C89.4773 12.812 89.4893 13.244 89.4893 13.676C89.4893 14.108 89.4893 14.504 89.4893 14.864H89.8493C90.2093 14.864 90.6293 14.852 91.1093 14.828C91.5893 14.804 92.0573 14.816 92.5133 14.864C92.9933 14.912 93.4253 15.032 93.8093 15.224C94.1933 15.392 94.4813 15.692 94.6733 16.124ZM126.083 8.276C126.107 8.444 126.119 8.6 126.119 8.744C126.119 8.888 126.119 9.032 126.119 9.176V10.652L125.903 29.336V29.696C125.903 29.84 125.867 30.056 125.795 30.344C125.771 30.464 125.735 30.596 125.687 30.74C125.639 30.86 125.591 30.992 125.543 31.136C125.423 31.424 125.255 31.64 125.039 31.784C124.847 31.976 124.535 32.108 124.103 32.18C123.431 32.324 122.819 32.264 122.267 32C121.955 31.808 121.739 31.568 121.619 31.28C121.571 31.232 121.523 31.16 121.475 31.064C121.475 31.016 121.451 30.944 121.403 30.848C121.355 30.728 121.319 30.608 121.295 30.488C121.271 30.344 121.247 30.2 121.223 30.056C121.223 29.936 121.211 29.816 121.187 29.696C121.187 29.576 121.175 29.456 121.151 29.336C121.103 29.216 121.079 29.12 121.079 29.048C121.079 28.952 121.079 28.844 121.079 28.724C121.127 28.628 121.151 28.448 121.151 28.184L121.187 25.34L121.223 20.804H119.279L111.971 20.84L111.899 29.336V29.696C111.899 29.84 111.863 30.056 111.791 30.344C111.767 30.464 111.731 30.596 111.683 30.74C111.635 30.86 111.587 30.992 111.539 31.136C111.419 31.424 111.251 31.64 111.035 31.784C110.843 31.976 110.531 32.108 110.099 32.18C109.427 32.324 108.815 32.264 108.263 32C108.023 31.856 107.795 31.616 107.579 31.28C107.531 31.184 107.507 31.112 107.507 31.064L107.399 30.848C107.351 30.728 107.315 30.608 107.291 30.488C107.267 30.344 107.243 30.2 107.219 30.056C107.219 29.936 107.207 29.816 107.183 29.696C107.159 29.576 107.135 29.456 107.111 29.336C107.087 29.144 107.087 28.94 107.111 28.724V28.184L107.147 25.34L107.219 20.048C107.243 19.28 107.255 18.488 107.255 17.672C107.255 16.856 107.255 16.016 107.255 15.152C107.231 14.288 107.219 13.52 107.219 12.848C107.243 12.176 107.279 11.42 107.327 10.58V10.436C107.351 10.196 107.363 9.956 107.363 9.716C107.363 9.452 107.375 9.188 107.399 8.924C107.423 8.684 107.459 8.456 107.507 8.24C107.579 8 107.675 7.76 107.795 7.52C107.867 7.328 107.963 7.172 108.083 7.052C108.203 6.908 108.347 6.776 108.515 6.656C108.899 6.464 109.283 6.368 109.667 6.368C109.859 6.368 110.027 6.38 110.171 6.404C110.315 6.404 110.459 6.416 110.603 6.44C110.891 6.464 111.167 6.608 111.431 6.872C111.623 7.04 111.755 7.232 111.827 7.448C111.947 7.76 112.019 8.036 112.043 8.276C112.067 8.444 112.079 8.6 112.079 8.744C112.079 8.888 112.079 9.032 112.079 9.176V10.652L112.007 16.592C112.199 16.592 112.415 16.592 112.655 16.592C112.919 16.592 113.219 16.58 113.555 16.556C114.803 16.556 116.039 16.568 117.263 16.592C118.511 16.616 119.819 16.628 121.187 16.628H121.223C121.223 15.548 121.223 14.516 121.223 13.532C121.247 12.548 121.283 11.516 121.331 10.436C121.331 10.196 121.331 9.956 121.331 9.716C121.355 9.452 121.379 9.188 121.403 8.924C121.427 8.684 121.463 8.456 121.511 8.24C121.583 8 121.679 7.76 121.799 7.52C121.847 7.328 121.931 7.172 122.051 7.052C122.195 6.908 122.363 6.776 122.555 6.656C122.891 6.464 123.263 6.368 123.671 6.368C123.863 6.368 124.031 6.38 124.175 6.404C124.343 6.404 124.487 6.416 124.607 6.44C124.943 6.488 125.219 6.632 125.435 6.872C125.627 6.992 125.759 7.184 125.831 7.448C125.879 7.592 125.915 7.736 125.939 7.88C125.987 8 126.035 8.132 126.083 8.276ZM143.808 23.432C143.76 24.224 143.712 25.028 143.664 25.844C143.616 26.636 143.484 27.404 143.268 28.148C143.076 28.892 142.764 29.564 142.332 30.164C141.924 30.764 141.336 31.244 140.568 31.604C139.896 31.94 139.176 32.168 138.408 32.288C137.64 32.432 136.872 32.492 136.104 32.468C135.336 32.444 134.592 32.324 133.872 32.108C133.152 31.916 132.504 31.64 131.928 31.28C131.352 30.92 130.884 30.452 130.524 29.876C130.164 29.3 129.876 28.676 129.66 28.004C129.468 27.332 129.336 26.636 129.264 25.916C129.192 25.196 129.144 24.524 129.12 23.9C129.024 22.244 129.024 20.612 129.12 19.004C129.12 18.692 129.12 18.344 129.12 17.96C129.12 17.552 129.144 17.156 129.192 16.772C129.264 16.388 129.372 16.04 129.516 15.728C129.66 15.392 129.9 15.14 130.236 14.972C130.956 14.588 131.616 14.564 132.216 14.9C132.84 15.236 133.212 15.932 133.332 16.988C133.404 17.54 133.428 18.152 133.404 18.824C133.404 19.496 133.428 20.108 133.476 20.66C133.5 21.476 133.524 22.364 133.548 23.324C133.572 24.26 133.704 25.1 133.944 25.844C134.208 26.588 134.628 27.152 135.204 27.536C135.804 27.896 136.692 27.908 137.868 27.572C138.42 27.404 138.78 26.984 138.948 26.312C139.14 25.64 139.236 24.644 139.236 23.324C139.236 22.748 139.224 22.112 139.2 21.416C139.176 20.72 139.164 20.036 139.164 19.364C139.164 18.668 139.176 18.032 139.2 17.456C139.248 16.856 139.32 16.4 139.416 16.088C139.536 15.656 139.788 15.332 140.172 15.116C140.556 14.9 140.964 14.792 141.396 14.792C141.828 14.768 142.236 14.852 142.62 15.044C143.004 15.236 143.268 15.548 143.412 15.98C143.556 16.364 143.652 16.856 143.7 17.456C143.772 18.032 143.82 18.668 143.844 19.364C143.868 20.036 143.868 20.732 143.844 21.452C143.844 22.148 143.832 22.808 143.808 23.432ZM147.576 19.148C147.576 18.596 147.564 18.008 147.54 17.384C147.54 16.76 147.648 16.196 147.864 15.692C148.056 15.236 148.368 14.912 148.8 14.72C149.256 14.504 149.7 14.456 150.132 14.576C150.564 14.648 150.9 14.78 151.14 14.972C151.38 15.164 151.548 15.392 151.644 15.656C151.764 15.896 151.836 16.184 151.86 16.52C151.884 16.832 151.908 17.144 151.932 17.456C152.172 17.024 152.472 16.676 152.832 16.412C153.192 16.148 153.564 15.932 153.948 15.764C154.332 15.596 154.692 15.476 155.028 15.404C155.388 15.332 155.664 15.296 155.856 15.296C156.768 15.296 157.668 15.5 158.556 15.908C159.468 16.292 160.224 16.844 160.824 17.564C161.16 17.996 161.412 18.452 161.58 18.932C161.772 19.388 161.904 19.868 161.976 20.372C162.072 20.876 162.132 21.392 162.156 21.92C162.18 22.424 162.204 22.94 162.228 23.468C162.348 25.004 162.348 26.528 162.228 28.04C162.204 28.352 162.192 28.712 162.192 29.12C162.192 29.528 162.156 29.936 162.084 30.344C162.036 30.728 161.928 31.076 161.76 31.388C161.616 31.676 161.364 31.856 161.004 31.928C160.5 32.048 160.08 32.072 159.744 32C159.432 31.952 159.18 31.844 158.988 31.676C158.796 31.508 158.652 31.292 158.556 31.028C158.46 30.764 158.376 30.464 158.304 30.128C158.256 29.864 158.208 29.564 158.16 29.228C158.136 28.868 158.112 28.508 158.088 28.148C158.088 27.788 158.076 27.44 158.052 27.104C158.052 26.744 158.052 26.42 158.052 26.132C158.052 25.676 158.04 25.172 158.016 24.62C157.992 24.068 157.992 23.552 158.016 23.072C158.016 21.944 157.716 21.092 157.116 20.516C156.54 19.916 155.748 19.664 154.74 19.76C153.972 19.856 153.3 20.168 152.724 20.696C152.148 21.2 151.872 21.86 151.896 22.676C151.896 22.988 151.896 23.276 151.896 23.54C151.896 23.804 151.884 24.068 151.86 24.332C151.86 24.596 151.86 24.884 151.86 25.196C151.86 25.508 151.86 25.856 151.86 26.24C151.86 27.032 151.86 27.872 151.86 28.76C151.86 29.624 151.752 30.332 151.536 30.884C151.344 31.46 151.02 31.856 150.564 32.072C150.108 32.288 149.568 32.228 148.944 31.892C148.68 31.748 148.464 31.556 148.296 31.316C148.152 31.052 148.032 30.776 147.936 30.488C147.864 30.2 147.816 29.912 147.792 29.624C147.768 29.312 147.744 29.024 147.72 28.76C147.648 27.968 147.6 27.236 147.576 26.564C147.576 25.868 147.576 25.124 147.576 24.332V19.148ZM179.154 16.124C179.346 16.58 179.358 17.084 179.19 17.636C179.046 18.188 178.77 18.548 178.362 18.716C178.146 18.812 177.858 18.896 177.498 18.968C177.138 19.016 176.742 19.064 176.31 19.112C175.902 19.16 175.494 19.196 175.086 19.22C174.678 19.244 174.33 19.256 174.042 19.256C174.066 19.976 174.09 20.72 174.114 21.488C174.138 22.232 174.162 22.964 174.186 23.684C174.21 24.404 174.222 25.1 174.222 25.772C174.222 26.42 174.21 27.008 174.186 27.536C174.186 27.896 174.186 28.316 174.186 28.796C174.186 29.252 174.15 29.696 174.078 30.128C174.03 30.56 173.946 30.944 173.826 31.28C173.706 31.592 173.526 31.796 173.286 31.892C172.542 32.204 171.858 32.288 171.234 32.144C170.634 32.024 170.202 31.772 169.938 31.388C169.746 31.076 169.602 30.716 169.506 30.308C169.41 29.876 169.338 29.444 169.29 29.012C169.266 28.556 169.254 28.124 169.254 27.716C169.278 27.284 169.29 26.912 169.29 26.6C169.314 25.592 169.326 24.452 169.326 23.18C169.35 21.884 169.362 20.588 169.362 19.292H168.822C168.534 19.292 168.162 19.292 167.706 19.292C167.274 19.268 166.83 19.232 166.374 19.184C165.942 19.112 165.534 19.028 165.15 18.932C164.766 18.812 164.49 18.644 164.322 18.428C164.058 18.116 163.89 17.78 163.818 17.42C163.77 17.06 163.794 16.724 163.89 16.412C164.01 16.076 164.19 15.788 164.43 15.548C164.67 15.284 164.946 15.116 165.258 15.044C165.69 14.924 166.302 14.864 167.094 14.864C167.886 14.84 168.63 14.84 169.326 14.864C169.302 14.624 169.29 14.396 169.29 14.18C169.29 13.94 169.278 13.712 169.254 13.496C169.23 13.208 169.218 12.848 169.218 12.416C169.218 11.96 169.242 11.516 169.29 11.084C169.362 10.628 169.47 10.208 169.614 9.824C169.758 9.416 169.962 9.104 170.226 8.888C170.586 8.6 170.946 8.444 171.306 8.42C171.69 8.372 172.038 8.42 172.35 8.564C172.686 8.708 172.962 8.924 173.178 9.212C173.418 9.476 173.586 9.776 173.682 10.112C173.754 10.4 173.814 10.748 173.862 11.156C173.91 11.54 173.934 11.948 173.934 12.38C173.958 12.812 173.97 13.244 173.97 13.676C173.97 14.108 173.97 14.504 173.97 14.864H174.33C174.69 14.864 175.11 14.852 175.59 14.828C176.07 14.804 176.538 14.816 176.994 14.864C177.474 14.912 177.906 15.032 178.29 15.224C178.674 15.392 178.962 15.692 179.154 16.124Z" fill="black"/>
</svg>
