<svg width="30" height="30" viewBox="0 0 30 30" fill="none" xmlns="http://www.w3.org/2000/svg">
<path d="M13.75 7.5C15.1307 7.5 16.25 6.38071 16.25 5C16.25 3.61929 15.1307 2.5 13.75 2.5C12.3693 2.5 11.25 3.61929 11.25 5C11.25 6.38071 12.3693 7.5 13.75 7.5Z" stroke="#DA5D35" stroke-width="3" stroke-linecap="round" stroke-linejoin="round"/>
<path d="M22.5 12.5C23.8807 12.5 25 11.3807 25 10C25 8.61929 23.8807 7.5 22.5 7.5C21.1193 7.5 20 8.61929 20 10C20 11.3807 21.1193 12.5 22.5 12.5Z" stroke="#DA5D35" stroke-width="3" stroke-linecap="round" stroke-linejoin="round"/>
<path d="M25 22.5C26.3807 22.5 27.5 21.3807 27.5 20C27.5 18.6193 26.3807 17.5 25 17.5C23.6193 17.5 22.5 18.6193 22.5 20C22.5 21.3807 23.6193 22.5 25 22.5Z" stroke="#DA5D35" stroke-width="3" stroke-linecap="round" stroke-linejoin="round"/>
<path d="M11.2501 12.5C12.0708 12.5 12.8835 12.6617 13.6418 12.9758C14.4001 13.2898 15.0891 13.7502 15.6695 14.3306C16.2498 14.9109 16.7102 15.5999 17.0243 16.3582C17.3384 17.1165 17.5001 17.9292 17.5001 18.75V23.125C17.4997 24.1706 17.1249 25.1815 16.4436 25.9746C15.7622 26.7676 14.8194 27.2905 13.7858 27.4484C12.7522 27.6063 11.6962 27.3888 10.8092 26.8354C9.9221 26.2819 9.26257 25.429 8.95005 24.4313C8.41672 22.7104 7.29172 21.5833 5.57505 21.05C4.57778 20.7376 3.72526 20.0786 3.17175 19.1922C2.61825 18.3058 2.40032 17.2505 2.55741 16.2173C2.7145 15.1842 3.23623 14.2414 4.02819 13.5595C4.82014 12.8777 5.83001 12.5018 6.87505 12.5H11.2501Z" stroke="#DA5D35" stroke-width="3" stroke-linecap="round" stroke-linejoin="round"/>
</svg>
